<svg width="1440" height="900" viewBox="0 0 1440 900" fill="none" xmlns="http://www.w3.org/2000/svg">
<path d="M395 324.8C403 324.8 409 326.533 413 330C417 333.467 419 338.4 419 344.8C419 358.133 411 364.8 395 364.8H374.6V396.4C374.6 404.667 372.2 411.067 367.4 415.6C362.867 420.133 356.867 422.4 349.4 422.4C341.933 422.4 335.8 420.133 331 415.6C326.467 411.067 324.2 404.667 324.2 396.4V364.8H219.4C212.2 364.8 206.6 362.8 202.6 358.8C198.6 354.533 196.6 349.333 196.6 343.2C196.6 336.8 198.733 330.667 203 324.8L326.6 147.2C329.267 143.467 332.6 140.667 336.6 138.8C340.6 136.667 344.733 135.6 349 135.6C355.933 135.6 361.933 137.867 367 142.4C372.067 146.933 374.6 153.333 374.6 161.6V324.8H395ZM324.2 324.8V217.2L249.8 324.8H324.2ZM544.844 423.6C511.51 423.6 486.044 411.333 468.444 386.8C450.844 362 442.044 326 442.044 278.8C442.044 231.867 450.844 196.133 468.444 171.6C486.044 146.8 511.51 134.4 544.844 134.4C578.177 134.4 603.644 146.8 621.244 171.6C638.844 196.133 647.644 231.867 647.644 278.8C647.644 325.733 638.844 361.6 621.244 386.4C603.644 411.2 578.177 423.6 544.844 423.6ZM544.844 383.2C562.977 383.2 576.177 374.933 584.444 358.4C592.71 341.6 596.844 315.067 596.844 278.8C596.844 242.267 592.71 215.867 584.444 199.6C576.177 183.067 562.977 174.8 544.844 174.8C526.71 174.8 513.51 183.067 505.244 199.6C496.977 216.133 492.844 242.533 492.844 278.8C492.844 315.067 496.977 341.6 505.244 358.4C513.51 374.933 526.71 383.2 544.844 383.2ZM874.688 324.8C882.688 324.8 888.688 326.533 892.688 330C896.688 333.467 898.688 338.4 898.688 344.8C898.688 358.133 890.688 364.8 874.688 364.8H854.288V396.4C854.288 404.667 851.888 411.067 847.088 415.6C842.554 420.133 836.554 422.4 829.088 422.4C821.621 422.4 815.488 420.133 810.688 415.6C806.154 411.067 803.888 404.667 803.888 396.4V364.8H699.088C691.888 364.8 686.288 362.8 682.288 358.8C678.288 354.533 676.288 349.333 676.288 343.2C676.288 336.8 678.421 330.667 682.688 324.8L806.288 147.2C808.954 143.467 812.288 140.667 816.288 138.8C820.288 136.667 824.421 135.6 828.688 135.6C835.621 135.6 841.621 137.867 846.688 142.4C851.754 146.933 854.288 153.333 854.288 161.6V324.8H874.688ZM803.888 324.8V217.2L729.488 324.8H803.888Z" fill="#5863F8"/>
<g clip-path="url(#clip0)">
<path d="M1231.09 143.073H951.019C935.604 143.073 923.107 156.159 923.107 172.301V569.03C923.107 585.172 935.604 598.258 951.019 598.258H1231.09C1246.5 598.258 1259 585.172 1259 569.03V172.301C1259 156.159 1246.5 143.073 1231.09 143.073Z" fill="#F2F2F2"/>
<path d="M1214.99 122.384H934.92C919.505 122.384 907.008 135.47 907.008 151.612V548.34C907.008 564.482 919.505 577.568 934.92 577.568H1214.99C1230.4 577.568 1242.9 564.482 1242.9 548.34V151.612C1242.9 135.47 1230.4 122.384 1214.99 122.384Z" stroke="#3F3D56" stroke-miterlimit="10"/>
<path d="M1222.78 169.488H924.205V530.463H1222.78V169.488Z" stroke="#3F3D56" stroke-miterlimit="10"/>
<path d="M1074.95 153.419C1079 153.419 1082.27 149.988 1082.27 145.756C1082.27 141.524 1079 138.093 1074.95 138.093C1070.91 138.093 1067.64 141.524 1067.64 145.756C1067.64 149.988 1070.91 153.419 1074.95 153.419Z" stroke="#3F3D56" stroke-miterlimit="10"/>
<path d="M1074.95 570.671C1083.85 570.671 1091.05 563.124 1091.05 553.813C1091.05 544.502 1083.85 536.954 1074.95 536.954C1066.06 536.954 1058.85 544.502 1058.85 553.813C1058.85 563.124 1066.06 570.671 1074.95 570.671Z" stroke="#3F3D56" stroke-miterlimit="10"/>
<path d="M1065.8 209.027C1059.36 209.027 1052.98 210.356 1047.03 212.936C1041.08 215.517 1035.68 219.299 1031.13 224.067C1026.57 228.836 1022.96 234.496 1020.5 240.726C1018.03 246.956 1016.76 253.634 1016.76 260.377C1016.76 288.737 1068.13 393.337 1068.13 393.337C1068.13 393.337 1114.84 288.737 1114.84 260.377C1114.84 246.758 1109.67 233.697 1100.47 224.067C1091.28 214.437 1078.81 209.027 1065.8 209.027ZM1065.8 294.61C1060.72 294.61 1055.75 293.033 1051.53 290.077C1047.31 287.122 1044.01 282.921 1042.07 278.006C1040.12 273.091 1039.62 267.683 1040.61 262.465C1041.6 257.248 1044.04 252.455 1047.64 248.693C1051.23 244.932 1055.81 242.37 1060.79 241.332C1065.77 240.294 1070.94 240.827 1075.63 242.863C1080.32 244.899 1084.33 248.346 1087.16 252.769C1089.98 257.193 1091.49 262.393 1091.49 267.713C1091.49 274.847 1088.78 281.688 1083.96 286.732C1079.15 291.777 1072.61 294.61 1065.8 294.61V294.61Z" fill="#6C63FF"/>
<path d="M1065.81 445.763C1092.89 445.763 1114.84 438.215 1114.84 428.905C1114.84 419.594 1092.89 412.046 1065.81 412.046C1038.73 412.046 1016.78 419.594 1016.78 428.905C1016.78 438.215 1038.73 445.763 1065.81 445.763Z" fill="#6C63FF"/>
<path d="M890.821 195.532C887.702 195.717 884.693 196.808 882.133 198.682C879.572 200.557 877.561 203.142 876.325 206.146C872.7 215.322 877.367 226.1 884.374 232.791C891.38 239.482 900.38 243.306 908.558 248.333C919.542 255.085 929.412 264.459 934.908 276.49C940.403 288.522 940.988 303.426 934.528 314.92C928.532 325.589 917.629 331.974 907.23 337.863" stroke="#3F3D56" stroke-miterlimit="10"/>
<path d="M900.056 202.846C907.129 202.846 912.862 199.929 912.862 196.332C912.862 192.735 907.129 189.818 900.056 189.818C892.983 189.818 887.25 192.735 887.25 196.332C887.25 199.929 892.983 202.846 900.056 202.846Z" fill="#964D4D"/>
<path d="M910.301 245.758C917.374 245.758 923.108 242.841 923.108 239.244C923.108 235.647 917.374 232.73 910.301 232.73C903.228 232.73 897.495 235.647 897.495 239.244C897.495 242.841 903.228 245.758 910.301 245.758Z" fill="#964D4D"/>
<path d="M886.884 252.655C893.957 252.655 899.69 249.739 899.69 246.142C899.69 242.544 893.957 239.628 886.884 239.628C879.811 239.628 874.077 242.544 874.077 246.142C874.077 249.739 879.811 252.655 886.884 252.655Z" fill="#964D4D"/>
<path d="M923.473 288.671C930.546 288.671 936.28 285.754 936.28 282.157C936.28 278.56 930.546 275.644 923.473 275.644C916.401 275.644 910.667 278.56 910.667 282.157C910.667 285.754 916.401 288.671 923.473 288.671Z" fill="#964D4D"/>
<path d="M949.086 288.671C956.159 288.671 961.893 285.754 961.893 282.157C961.893 278.56 956.159 275.644 949.086 275.644C942.013 275.644 936.28 278.56 936.28 282.157C936.28 285.754 942.013 288.671 949.086 288.671Z" fill="#964D4D"/>
<path d="M660.753 718.617H923.108" stroke="#6C63FF" stroke-miterlimit="10"/>
<path d="M651.132 585.861C648.227 586.033 645.426 587.049 643.041 588.795C640.657 590.54 638.784 592.947 637.633 595.745C634.257 604.289 638.603 614.326 645.128 620.556C651.652 626.787 660.033 630.348 667.648 635.029C677.876 641.317 687.067 650.045 692.185 661.249C697.302 672.453 697.847 686.331 691.831 697.035C686.248 706.969 676.095 712.915 666.412 718.399" stroke="#3F3D56" stroke-miterlimit="10"/>
<path d="M659.731 592.671C666.317 592.671 671.657 589.955 671.657 586.605C671.657 583.256 666.317 580.54 659.731 580.54C653.145 580.54 647.806 583.256 647.806 586.605C647.806 589.955 653.145 592.671 659.731 592.671Z" fill="#964D4D"/>
<path d="M669.271 632.631C675.857 632.631 681.197 629.915 681.197 626.565C681.197 623.216 675.857 620.5 669.271 620.5C662.685 620.5 657.346 623.216 657.346 626.565C657.346 629.915 662.685 632.631 669.271 632.631Z" fill="#964D4D"/>
<path d="M647.465 639.053C654.052 639.053 659.391 636.337 659.391 632.987C659.391 629.637 654.052 626.922 647.465 626.922C640.879 626.922 635.54 629.637 635.54 632.987C635.54 636.337 640.879 639.053 647.465 639.053Z" fill="#964D4D"/>
<path d="M681.537 672.591C688.123 672.591 693.462 669.875 693.462 666.525C693.462 663.176 688.123 660.46 681.537 660.46C674.951 660.46 669.612 663.176 669.612 666.525C669.612 669.875 674.951 672.591 681.537 672.591Z" fill="#964D4D"/>
<path d="M705.388 672.591C711.974 672.591 717.313 669.875 717.313 666.525C717.313 663.176 711.974 660.46 705.388 660.46C698.801 660.46 693.462 663.176 693.462 666.525C693.462 669.875 698.801 672.591 705.388 672.591Z" fill="#964D4D"/>
<path d="M680.048 610.367C682.42 610.508 684.708 611.337 686.655 612.763C688.602 614.188 690.132 616.154 691.072 618.439C693.829 625.417 690.279 633.613 684.951 638.701C679.623 643.79 672.778 646.698 666.559 650.521C658.207 655.656 650.701 662.784 646.521 671.934C642.342 681.084 641.897 692.418 646.81 701.159C651.37 709.272 659.661 714.128 667.569 718.606" stroke="#3F3D56" stroke-miterlimit="10"/>
<path d="M673.025 615.928C678.404 615.928 682.764 613.711 682.764 610.975C682.764 608.239 678.404 606.021 673.025 606.021C667.646 606.021 663.286 608.239 663.286 610.975C663.286 613.711 667.646 615.928 673.025 615.928Z" fill="#964D4D"/>
<path d="M665.234 648.562C670.612 648.562 674.973 646.344 674.973 643.609C674.973 640.873 670.612 638.655 665.234 638.655C659.855 638.655 655.495 640.873 655.495 643.609C655.495 646.344 659.855 648.562 665.234 648.562Z" fill="#964D4D"/>
<path d="M683.042 653.807C688.421 653.807 692.781 651.589 692.781 648.854C692.781 646.118 688.421 643.9 683.042 643.9C677.663 643.9 673.303 646.118 673.303 648.854C673.303 651.589 677.663 653.807 683.042 653.807Z" fill="#964D4D"/>
<path d="M655.217 681.197C660.595 681.197 664.956 678.979 664.956 676.243C664.956 673.508 660.595 671.29 655.217 671.29C649.838 671.29 645.478 673.508 645.478 676.243C645.478 678.979 649.838 681.197 655.217 681.197Z" fill="#964D4D"/>
<path d="M635.739 681.197C641.118 681.197 645.478 678.979 645.478 676.243C645.478 673.508 641.118 671.29 635.739 671.29C630.36 671.29 626 673.508 626 676.243C626 678.979 630.36 681.197 635.739 681.197Z" fill="#964D4D"/>
<path d="M721.02 687.153C721.02 687.153 727.834 690.721 732.604 691.435C737.374 692.148 740.057 687.096 739.057 685.34C738.056 683.585 742.144 685.012 744.87 691.435C744.87 691.435 756.455 705.706 763.269 706.42C770.083 707.133 770.137 716.794 766.676 717.123C762.928 717.48 756.455 719.978 748.277 717.123C740.1 714.269 732.604 706.42 729.197 706.42C725.79 706.42 714.205 700.711 717.613 697.857C721.02 695.002 721.02 687.153 721.02 687.153Z" fill="#964D4D"/>
<path d="M788.183 703.274C791.661 703.555 795.16 703.33 798.58 702.606C803.262 701.415 803.963 695.681 802.411 694.44C800.86 693.199 805.162 692.935 809.97 697.839C809.97 697.839 825.786 706.588 832.366 704.602C838.947 702.615 842.42 711.565 839.324 713.216C834.073 716.231 828.236 717.956 822.255 718.26C813.65 718.788 803.892 716.521 800.728 717.845C797.564 719.169 784.784 718.371 786.936 714.397C789.088 710.422 788.183 703.274 788.183 703.274Z" fill="#964D4D"/>
<path d="M776.598 362.899C791.276 362.899 803.174 350.44 803.174 335.07C803.174 319.7 791.276 307.24 776.598 307.24C761.921 307.24 750.022 319.7 750.022 335.07C750.022 350.44 761.921 362.899 776.598 362.899Z" fill="#FFC1C7"/>
<path d="M755.814 346.13C755.814 346.13 759.903 376.1 750.363 380.382C740.823 384.663 798.745 383.236 798.745 383.236C798.745 383.236 790.568 356.12 792.612 348.985C794.656 341.849 755.814 346.13 755.814 346.13Z" fill="#FFC1C7"/>
<path d="M746.274 516.675C746.274 516.675 744.23 570.907 742.185 576.615C740.141 582.324 738.097 620.857 738.097 620.857L720.379 690.788L736.734 696.496C736.734 696.496 759.221 655.109 761.947 650.114C764.673 645.119 786.479 565.198 786.479 565.198C786.479 565.198 784.435 614.435 784.435 630.847C784.435 647.259 788.523 707.2 788.523 707.2L801.471 705.773L818.507 630.134C818.507 630.134 843.038 528.092 826.684 516.675C810.329 505.258 746.274 516.675 746.274 516.675Z" fill="#2F2E41"/>
<path d="M845.764 533.8C845.764 533.8 846.446 575.188 838.268 568.766C830.091 562.343 838.268 530.232 838.268 530.232L845.764 533.8Z" fill="#FFC1C7"/>
<path d="M732.645 519.529C732.645 519.529 733.327 560.916 725.149 554.494C716.972 548.072 725.149 515.961 725.149 515.961L732.645 519.529Z" fill="#FFC1C7"/>
<path d="M832.817 398.935C832.817 398.935 819.188 382.523 807.604 384.663C796.019 386.804 732.645 386.09 732.645 386.09C732.645 386.09 711.521 413.92 716.972 419.629C722.424 425.337 740.141 526.665 740.141 526.665C740.141 526.665 787.16 520.243 803.515 520.243C819.87 520.243 826.684 517.389 826.684 517.389C826.684 517.389 804.878 471.72 815.099 451.026C825.321 430.332 840.313 408.211 840.313 408.211L832.817 398.935Z" fill="#964D4D"/>
<path d="M828.728 403.93L840.313 408.211C840.313 408.211 847.127 433.186 847.127 453.166C847.127 473.147 847.809 483.137 850.534 490.272C853.26 497.408 862.119 530.946 857.349 538.082C854.715 542.144 851.497 545.755 847.809 548.786L832.136 547.359C832.136 547.359 831.454 523.811 827.365 521.67C823.277 519.529 817.825 505.971 817.825 505.971C817.825 505.971 804.878 462.443 813.055 448.171C821.233 433.9 828.728 403.93 828.728 403.93Z" fill="#964D4D"/>
<path d="M785.116 430.332C785.116 430.332 791.93 398.935 778.983 400.362C766.036 401.789 748.318 402.502 743.548 402.502C738.778 402.502 711.521 398.934 707.432 417.487C703.343 436.04 697.892 458.875 709.476 473.146C709.476 473.146 713.565 535.941 729.238 540.223C744.911 544.504 786.479 549.499 801.471 528.805C816.462 508.112 810.329 485.277 810.329 485.277H803.515L785.116 430.332Z" fill="#3F3D56"/>
<path d="M807.604 486.705L813.055 448.171L810.33 488.131L807.604 486.705Z" fill="#605757"/>
<path opacity="0.1" d="M716.291 478.142C716.291 478.142 727.875 483.85 751.726 480.282V490.986L716.291 488.132V478.142Z" fill="#605757"/>
<path d="M778.642 400.005L796.36 390.015L781.368 403.573L778.642 400.005Z" fill="#605757"/>
<path d="M816.462 389.658C816.462 389.658 830.091 394.653 830.091 389.658C830.091 384.663 817.825 380.381 810.329 377.527C802.834 374.672 767.399 370.391 761.947 368.25C756.496 366.11 730.601 362.542 728.557 371.105C726.512 379.668 725.831 397.507 736.053 399.648C746.274 401.788 772.85 396.08 786.479 397.507C800.108 398.934 816.462 389.658 816.462 389.658Z" fill="#964D4D"/>
<path opacity="0.1" d="M816.462 389.658C816.462 389.658 830.091 394.653 830.091 389.658C830.091 384.663 817.825 380.381 810.329 377.527C802.834 374.672 767.399 370.391 761.947 368.25C756.496 366.11 730.601 362.542 728.557 371.105C726.512 379.668 725.831 397.507 736.053 399.648C746.274 401.788 772.85 396.08 786.479 397.507C800.108 398.934 816.462 389.658 816.462 389.658Z" fill="#964D4D"/>
<path d="M721.402 405.714L726.033 395.526L726.853 407.855L721.402 405.714Z" fill="#964D4D"/>
<path d="M771.993 363.794C785.734 363.794 796.873 350.242 796.873 333.525C796.873 316.808 785.734 303.256 771.993 303.256C758.251 303.256 747.112 316.808 747.112 333.525C747.112 350.242 758.251 363.794 771.993 363.794Z" fill="#2F2E41"/>
<path d="M776.383 333.908C790.125 333.908 801.264 326.532 801.264 317.433C801.264 308.333 790.125 300.957 776.383 300.957C762.642 300.957 751.502 308.333 751.502 317.433C751.502 326.532 762.642 333.908 776.383 333.908Z" fill="#2F2E41"/>
<path d="M795.776 346.935C797.19 346.935 798.337 344.876 798.337 342.337C798.337 339.798 797.19 337.739 795.776 337.739C794.361 337.739 793.214 339.798 793.214 342.337C793.214 344.876 794.361 346.935 795.776 346.935Z" fill="#FFC1C7"/>
<path d="M792.203 313.284C794.821 311.784 797.057 309.071 798.731 305.366C798.895 306.19 798.939 307.035 798.861 307.872C799.948 307.744 801.004 307.411 801.977 306.889L801.744 309.56C803.624 308.353 805.352 306.905 806.887 305.247C807.304 309.144 806.68 313.085 805.086 316.633C803.728 319.44 801.883 321.266 800.057 323.065" fill="#2F2E41"/>
</g>
<defs>
<clipPath id="clip0">
<rect width="633" height="597" fill="white" transform="translate(626 122)"/>
</clipPath>
</defs>
</svg>
