<svg viewBox="0 0 87 81" fill="none" xmlns="http://www.w3.org/2000/svg">
<path d="M68.846 23.7008V33.7597C68.846 33.7597 61.739 33.7933 61.7033 33.7597V23.7008H50.9894C50.9894 23.7008 51.0251 17.0061 50.9894 16.9725H61.7033V6.87994H68.846V16.9725H79.5599V23.7008H68.846ZM58.132 37.1575V27.065H47.418V16.9725H18.8475C14.919 16.9725 11.7048 20.0002 11.7048 23.7008V64.0708C11.7048 67.7714 14.919 70.7991 18.8475 70.7991H61.7033C65.6318 70.7991 68.846 67.7714 68.846 64.0708V37.1575H58.132ZM18.8475 64.0708L29.5614 50.6141L36.7041 60.7066L47.418 47.25L61.7033 64.0708H18.8475Z" fill="#919191"/>
</svg>
