<svg width="35" height="28" viewBox="0 0 35 28" fill="none" xmlns="http://www.w3.org/2000/svg">
<g opacity="0.7" clip-path="url(#clip0)">
<path d="M30.0189 3.36206C30.0178 3.36206 30.0166 3.36206 30.0154 3.36206C28.7928 3.36206 27.7971 4.15703 27.7951 5.13551L27.7901 7.71607L18.7576 0.490111C17.9407 -0.16337 16.6116 -0.16337 15.7948 0.490111C15.5101 0.717895 15.3249 0.995479 15.2387 1.28809L15.0775 1.15911C14.6818 0.842581 14.1557 0.668278 13.5961 0.668278C13.0364 0.668278 12.5104 0.842581 12.1146 1.15917C11.2978 1.81265 11.2978 2.87601 12.1146 3.52955L12.6133 3.92845C12.2392 3.99917 11.896 4.15114 11.6175 4.37396C11.2217 4.69049 11.0038 5.1114 11.0038 5.55912C11.0038 6.00684 11.2217 6.42775 11.6174 6.74428L12.6437 7.56532C12.2776 7.63425 11.9303 7.78231 11.6452 8.01009C11.2496 8.32662 11.0317 8.74753 11.0317 9.19525C11.0317 9.64297 11.2496 10.0639 11.6452 10.3804L12.327 10.9258C12.2955 11.0413 12.2784 11.161 12.2784 11.2838V12.4443C11.9588 12.2862 11.5825 12.1947 11.18 12.1947C10.0248 12.1947 9.08496 12.9466 9.08496 13.8708V22.5729C9.08496 24.4891 9.91569 26.364 11.4242 27.8524C11.5226 27.9495 11.6665 28 11.8116 28C11.9218 28 12.0328 27.9708 12.1251 27.911C12.3389 27.7723 12.3717 27.5213 12.1984 27.3502C10.8334 26.0034 10.0817 24.3068 10.0817 22.5728V13.8708C10.0817 13.3862 10.5744 12.992 11.18 12.992C11.7857 12.992 12.2785 13.3862 12.2785 13.8708V19.4616C12.2785 19.6818 12.5016 19.8603 12.7768 19.8603C13.052 19.8603 13.2751 19.6818 13.2751 19.4616V11.2839C13.2751 10.7994 13.7679 10.4051 14.3735 10.4051C14.9792 10.4051 15.472 10.7993 15.472 11.2839V18.927C15.472 19.1471 15.6951 19.3256 15.9703 19.3256C16.2455 19.3256 16.4686 19.1471 16.4686 18.927V9.29197C16.4686 8.80746 16.9614 8.41322 17.567 8.41322C18.1727 8.41322 18.6654 8.80746 18.6654 9.29197V17.0851V19.3428C18.6654 19.563 18.8885 19.7415 19.1637 19.7415C19.4389 19.7415 19.662 19.563 19.662 19.3428V17.0851V10.9007C19.662 10.4162 20.1548 10.0219 20.7605 10.0219C21.3661 10.0219 21.8589 10.4162 21.8589 10.9007C21.8589 10.9007 21.86 22.1099 21.8621 22.1249C21.8743 22.2112 21.9217 22.295 22.0043 22.3614C22.1986 22.5173 22.5142 22.5177 22.709 22.3623L25.8437 19.8625C26.3214 19.4814 27.0979 19.4824 27.5742 19.8647C28.0503 20.2467 28.0493 20.8676 27.572 21.2487L20.0933 27.2204C19.8985 27.3759 19.8982 27.6284 20.0926 27.7841C20.19 27.8621 20.3177 27.9011 20.4454 27.9011C20.5727 27.9011 20.7001 27.8623 20.7974 27.7847L28.2761 21.813C29.1421 21.1216 29.1439 19.995 28.2801 19.3018C27.4157 18.6081 26.0072 18.6064 25.1401 19.2978L22.8556 21.1197V18.3888C23.5736 18.6189 24.322 18.7848 25.0894 18.8833C25.1161 18.8868 25.1426 18.8884 25.1689 18.8884C25.4094 18.8884 25.621 18.7488 25.6603 18.5528C25.7038 18.3355 25.5189 18.1309 25.2471 18.0961C24.4196 17.9899 23.6167 17.7967 22.8556 17.5219V10.9007C22.8556 9.97649 21.9157 9.22463 20.7605 9.22463C20.7222 9.22463 20.6841 9.22561 20.6462 9.22721L12.8193 2.96586C12.3909 2.6232 12.3909 2.06564 12.8192 1.72305C13.0267 1.55703 13.3026 1.46564 13.596 1.46564C13.8894 1.46564 14.1653 1.55703 14.3728 1.72299L23.2566 8.83003C23.4511 8.98568 23.7667 8.98568 23.9613 8.83003C24.1559 8.67431 24.1559 8.42193 23.9613 8.26627L16.4994 2.29668C16.292 2.13072 16.1777 1.91005 16.1777 1.67533C16.1777 1.44062 16.292 1.21995 16.4994 1.05399C16.9278 0.711332 17.6245 0.711332 18.0529 1.05399L27.47 8.58758C26.1282 9.11117 25.0693 9.98636 24.4576 11.0911C23.7707 12.3315 23.7289 13.7116 24.3397 14.9772C24.4159 15.1354 24.6046 15.2324 24.8046 15.2324C24.8642 15.2324 24.9249 15.2237 24.984 15.2055C25.2407 15.1262 25.3685 14.8954 25.2694 14.69C24.7545 13.6231 24.7898 12.4597 25.3688 11.414C25.9478 10.3683 26.9935 9.54938 28.3348 9.15373C28.7962 9.01764 28.7846 8.76458 28.7848 8.67756L28.7918 5.13673C28.7924 4.87522 28.9201 4.62959 29.1515 4.44498C29.3826 4.26074 29.6893 4.15936 30.0155 4.15936C30.0162 4.15936 30.0168 4.15936 30.0174 4.15936C30.6917 4.16022 31.2398 4.59978 31.2392 5.13925L31.2292 13.5924C31.229 13.8126 31.4518 13.9913 31.7271 13.9915C31.7272 13.9915 31.7274 13.9915 31.7275 13.9915C32.0025 13.9915 32.2256 13.8132 32.2258 13.5932L32.2358 5.13998C32.2369 4.1612 31.2425 3.36365 30.0189 3.36206ZM14.3734 9.60789C13.7477 9.60789 13.1856 9.82874 12.8013 10.1778L12.3499 9.81672C12.1425 9.65076 12.0283 9.43009 12.0283 9.19531C12.0283 8.96054 12.1425 8.73987 12.3497 8.57409C12.7785 8.23162 13.4756 8.2315 13.9036 8.57391C13.9048 8.57489 13.9063 8.5755 13.9076 8.57648L15.4719 9.82794V9.85757C15.1522 9.69939 14.7759 9.60789 14.3734 9.60789ZM15.5719 8.78047L12.3222 6.18059C12.1146 6.01463 12.0004 5.79389 12.0004 5.55918C12.0004 5.32447 12.1146 5.10374 12.3222 4.93778C12.5295 4.77181 12.8055 4.68043 13.0989 4.68043C13.387 4.68043 13.6585 4.76869 13.8636 4.92888L17.2469 7.63548C16.4569 7.73275 15.8113 8.18445 15.5719 8.78047Z" fill="#5863F8"/>
<path d="M7.57161 9.42187C7.80712 9.42187 8.01656 9.28768 8.06103 9.09578C8.11109 8.87928 7.93239 8.6713 7.66177 8.63119L3.35342 7.99292C3.0831 7.95269 2.82283 8.09571 2.77269 8.31233C2.72263 8.52883 2.90133 8.73681 3.17195 8.77692L7.4803 9.41519C7.51097 9.41967 7.54148 9.42187 7.57161 9.42187Z" fill="#5863F8"/>
<path d="M7.57161 9.42187C7.80712 9.42187 8.01656 9.28768 8.06103 9.09578C8.11109 8.87928 7.93239 8.6713 7.66177 8.63119L3.35342 7.99292C3.0831 7.95269 2.82283 8.09571 2.77269 8.31233C2.72263 8.52883 2.90133 8.73681 3.17195 8.77692L7.4803 9.41519C7.51097 9.41967 7.54148 9.42187 7.57161 9.42187Z" stroke="#5863F8"/>
<path d="M9.5549 7.15986C9.78167 7.03512 9.83909 6.78691 9.68324 6.60549L7.20086 3.71699C7.04485 3.53557 6.73467 3.48969 6.5079 3.61432C6.28113 3.73907 6.22371 3.98727 6.37957 4.16869L8.86194 7.0572C8.95861 7.16962 9.11447 7.23003 9.27301 7.23003C9.37037 7.23003 9.46866 7.20727 9.5549 7.15986Z" fill="#5863F8"/>
<path d="M9.5549 7.15986C9.78167 7.03512 9.83909 6.78691 9.68324 6.60549L7.20086 3.71699C7.04485 3.53557 6.73467 3.48969 6.5079 3.61432C6.28113 3.73907 6.22371 3.98727 6.37957 4.16869L8.86194 7.0572C8.95861 7.16962 9.11447 7.23003 9.27301 7.23003C9.37037 7.23003 9.46866 7.20727 9.5549 7.15986Z" stroke="#5863F8"/>
<path d="M8.02271 11.2071L4.41208 13.193C4.1853 13.3178 4.12788 13.566 4.28374 13.7474C4.38041 13.8598 4.53627 13.9202 4.69481 13.9202C4.79217 13.9202 4.89046 13.8975 4.9767 13.8501L8.58734 11.8642C8.81411 11.7394 8.87153 11.4912 8.71567 11.3098C8.55966 11.1284 8.24948 11.0824 8.02271 11.2071Z" fill="#5863F8"/>
<path d="M8.02271 11.2071L4.41208 13.193C4.1853 13.3178 4.12788 13.566 4.28374 13.7474C4.38041 13.8598 4.53627 13.9202 4.69481 13.9202C4.79217 13.9202 4.89046 13.8975 4.9767 13.8501L8.58734 11.8642C8.81411 11.7394 8.87153 11.4912 8.71567 11.3098C8.55966 11.1284 8.24948 11.0824 8.02271 11.2071Z" stroke="#5863F8"/>
</g>
<defs>
<clipPath id="clip0">
<rect width="35" height="28" fill="white"/>
</clipPath>
</defs>
</svg>
