<svg width="16" height="26" viewBox="0 0 16 26" fill="none" xmlns="http://www.w3.org/2000/svg">
<path d="M14.999 0.130862L11.4977 0.125244C7.56416 0.125244 5.02213 2.73328 5.02213 6.76991V9.83355H1.50177C1.19757 9.83355 0.951233 10.0802 0.951233 10.3844V14.8232C0.951233 15.1274 1.19785 15.3738 1.50177 15.3738H5.02213V26.5744C5.02213 26.8786 5.26847 27.125 5.57267 27.125H10.1657C10.4699 27.125 10.7163 26.8783 10.7163 26.5744V15.3738H14.8324C15.1366 15.3738 15.3829 15.1274 15.3829 14.8232L15.3846 10.3844C15.3846 10.2383 15.3265 10.0984 15.2234 9.99506C15.1203 9.89169 14.9799 9.83355 14.8338 9.83355H10.7163V7.23647C10.7163 5.9882 11.0137 5.35452 12.6398 5.35452L14.9984 5.35368C15.3023 5.35368 15.5487 5.10706 15.5487 4.80314V0.681401C15.5487 0.377762 15.3026 0.131424 14.999 0.130862Z" fill="white"/>
</svg>
