<svg width="701" height="47" viewBox="0 0 701 47" fill="none" xmlns="http://www.w3.org/2000/svg">
<path d="M0.000732422 22.5L700.001 23.5" stroke="#656464"/>
<path d="M372.5 23.5C372.5 36.1478 360.918 46.5 346.5 46.5C332.082 46.5 320.5 36.1478 320.5 23.5C320.5 10.8522 332.082 0.5 346.5 0.5C360.918 0.5 372.5 10.8522 372.5 23.5Z" fill="white" stroke="#767575"/>
<path d="M339.876 29.144C338.7 29.144 337.674 28.88 336.798 28.352C335.934 27.824 335.268 27.074 334.8 26.102C334.332 25.13 334.098 23.984 334.098 22.664C334.098 21.332 334.326 20.18 334.782 19.208C335.25 18.224 335.916 17.474 336.78 16.958C337.656 16.43 338.688 16.166 339.876 16.166C341.064 16.166 342.09 16.43 342.954 16.958C343.83 17.474 344.496 18.224 344.952 19.208C345.42 20.18 345.654 21.326 345.654 22.646C345.654 23.966 345.42 25.118 344.952 26.102C344.484 27.074 343.812 27.824 342.936 28.352C342.072 28.88 341.052 29.144 339.876 29.144ZM339.876 27.884C341.22 27.884 342.264 27.434 343.008 26.534C343.764 25.622 344.142 24.326 344.142 22.646C344.142 20.966 343.77 19.676 343.026 18.776C342.282 17.876 341.232 17.426 339.876 17.426C338.532 17.426 337.482 17.882 336.726 18.794C335.982 19.694 335.61 20.978 335.61 22.646C335.61 24.314 335.982 25.604 336.726 26.516C337.482 27.428 338.532 27.884 339.876 27.884ZM357.996 28.082C358.08 28.214 358.122 28.352 358.122 28.496C358.122 28.676 358.05 28.826 357.906 28.946C357.774 29.054 357.618 29.108 357.438 29.108C357.162 29.108 356.946 28.988 356.79 28.748L354.378 24.932C354.066 24.44 353.742 24.104 353.406 23.924C353.07 23.732 352.614 23.636 352.038 23.636H349.77V28.334C349.77 28.562 349.704 28.748 349.572 28.892C349.44 29.024 349.266 29.09 349.05 29.09C348.822 29.09 348.642 29.024 348.51 28.892C348.378 28.748 348.312 28.562 348.312 28.334V17.03C348.312 16.814 348.378 16.64 348.51 16.508C348.654 16.376 348.84 16.31 349.068 16.31H353.532C354.912 16.31 355.962 16.616 356.682 17.228C357.414 17.84 357.78 18.74 357.78 19.928C357.78 20.936 357.486 21.746 356.898 22.358C356.322 22.97 355.494 23.342 354.414 23.474C354.714 23.57 354.984 23.726 355.224 23.942C355.464 24.158 355.704 24.458 355.944 24.842L357.996 28.082ZM353.406 22.412C354.39 22.412 355.122 22.208 355.602 21.8C356.094 21.392 356.34 20.774 356.34 19.946C356.34 19.13 356.1 18.524 355.62 18.128C355.14 17.732 354.402 17.534 353.406 17.534H349.77V22.412H353.406Z" fill="#656464"/>
</svg>
