<svg width="28" height="26" viewBox="0 0 28 26" fill="none" xmlns="http://www.w3.org/2000/svg">
<path d="M18.1072 0.000488281H11.4296C8.45406 0.000488281 6.39428 0.606264 4.5404 2.02833C3.08239 3.19638 2.21227 4.89395 2.21227 6.5695C2.21227 9.15102 4.33191 11.8945 8.25974 11.8945C8.6374 11.8945 9.05554 11.8585 9.42452 11.8265L9.37016 11.9492C9.21227 12.3005 9.06277 12.6318 9.06277 13.149C9.06277 14.1559 9.58588 14.777 10.0916 15.3771L10.1553 15.4531L10.0422 15.4604C8.42023 15.5635 5.40127 15.7557 3.19604 17.0143C0.591459 18.4522 0.389038 20.5439 0.389038 21.1505C0.389038 23.564 2.81115 26 8.22272 26C14.5151 26 17.8076 22.7764 17.8076 19.5923C17.8082 17.2372 16.321 16.0745 14.7424 14.8401L13.4108 13.8783C12.9993 13.5617 12.4869 13.1678 12.4869 12.4379C12.4869 11.7205 12.9993 11.2468 13.4515 10.829L13.4987 10.7847C14.9367 9.7329 16.5665 8.54042 16.5665 5.96104C16.5665 3.3677 14.8213 2.02753 13.9822 1.38335H16.1981C16.2253 1.38335 16.2525 1.37637 16.275 1.36268L18.1838 0.24833C18.2382 0.216376 18.2637 0.154886 18.2457 0.0974231C18.2287 0.0399603 18.1714 0.000488281 18.1072 0.000488281ZM10.0095 24.5792C6.17393 24.5792 3.59683 22.9158 3.59683 20.4398C3.59683 18.823 4.65086 17.6483 6.72683 16.9498C8.38929 16.4303 10.5352 16.4045 10.5566 16.4045C10.9201 16.4045 11.1029 16.4045 11.3932 16.4383C14.077 18.2119 15.3673 19.1431 15.3673 20.9167C15.367 23.176 13.3139 24.5792 10.0095 24.5792ZM9.97337 10.9442C6.7543 10.9442 5.41833 7.01497 5.41833 4.91113C5.41833 3.84136 5.68032 3.02024 6.21933 2.40023C6.80433 1.72061 7.80602 1.28158 8.77128 1.28158C11.7269 1.28158 13.3613 4.97048 13.3613 7.52005C13.3613 7.92229 13.3613 9.14592 12.451 9.99578C11.8388 10.5632 10.8432 10.9442 9.97337 10.9442Z" fill="white"/>
<path d="M27.4663 12.1432H23.9477V8.88743C23.9477 8.81332 23.8826 8.75317 23.8031 8.75317H22.2896C22.2098 8.75317 22.145 8.81332 22.145 8.88743V12.1432H18.644C18.5642 12.1432 18.4994 12.2034 18.4994 12.2775V13.7017C18.4994 13.7755 18.5642 13.8359 18.644 13.8359H22.145V17.1126C22.145 17.1865 22.2098 17.2469 22.2896 17.2469H23.8031C23.8826 17.2469 23.9477 17.1865 23.9477 17.1126V13.8354H27.4663C27.5461 13.8354 27.6109 13.7755 27.6109 13.7011V12.2775C27.6109 12.2031 27.5464 12.1432 27.4663 12.1432Z" fill="white"/>
</svg>
