<svg width="405" height="395" viewBox="0 0 405 395" fill="none" xmlns="http://www.w3.org/2000/svg">
<g clip-path="url(#clip0)">
<path opacity="0.1" d="M237.518 66.753C211.892 65.6601 187.481 55.5126 164.175 44.4081C140.869 33.3036 117.785 20.9994 92.7726 15.1168C76.6849 11.3328 58.2848 10.7984 45.3251 21.3783C32.8485 31.5792 28.8177 49.1394 26.6518 65.4512C25.0205 77.7215 24.0623 90.633 28.5326 102.121C31.633 110.097 37.1407 116.801 40.9459 124.466C54.1985 151.047 44.8341 183.826 30.4728 209.78C23.7415 221.958 15.9214 233.582 10.7265 246.533C5.53152 259.483 3.1241 274.342 7.66968 287.565C12.1796 300.68 22.9219 310.512 34.5551 317.434C58.1897 331.497 86.0294 335.519 113.196 337.797C173.314 342.844 233.749 340.658 294.025 338.472C316.333 337.661 338.737 336.84 360.681 332.609C372.868 330.258 385.448 326.532 394.297 317.526C405.527 306.096 408.31 286.739 400.787 272.409C388.16 248.369 353.272 242.399 344.434 216.595C339.58 202.396 344.569 186.58 351.625 173.406C366.766 145.155 392.143 120.366 393.482 88.073C394.4 65.8884 382.197 43.6795 363.333 33.1822C343.563 22.1409 316.139 23.5399 301.56 41.751C286.538 60.5159 260.143 67.7148 237.518 66.753Z" fill="#6C63FF"/>
<path d="M172.419 335.417L36.8912 334.606L23.4248 295.857L71.0425 291.616L62.7432 249.131L156.925 234.155L66.7384 195.693L74.7051 193.371L219.724 222.395L211.738 288.696L200.322 325.133L172.419 335.417Z" fill="#6C63FF"/>
<path d="M38.97 318.376C38.97 318.376 47.2851 316.744 52.2742 323.953C52.2742 323.953 48.6155 327.489 40.7439 322.593L38.97 318.376Z" fill="#6C63FF"/>
<path d="M38.0989 318.216C38.0989 318.216 32.7931 326.226 35.4064 335.145C35.4064 335.145 39.7303 333.022 40.2015 322.209L38.0989 318.216Z" fill="#6C63FF"/>
<path d="M33.3316 305.047C33.3316 305.047 36.6576 297.562 49.9618 308.039C49.9618 308.039 48.1879 313.072 42.3119 312.664C36.4359 312.256 34.8838 308.991 33.3316 305.047Z" fill="#6C63FF"/>
<path d="M32.4724 304.508C32.4724 304.508 25.5709 303.536 24.9017 322.918C24.9017 322.918 29.277 324.031 32.3853 317.9C35.4935 311.77 34.2185 308.331 32.4724 304.508Z" fill="#6C63FF"/>
<path d="M28.4534 289.046C28.4534 289.046 32.3338 275.853 46.414 285.238C46.414 285.238 43.1988 297.343 29.8947 293.535L28.4534 289.046Z" fill="#6C63FF"/>
<path d="M24.1296 269.324C24.1296 269.324 31.4469 255.995 44.4184 268.353C44.4184 268.353 39.8728 280.866 25.2383 274.065L24.1296 269.324Z" fill="#6C63FF"/>
<path d="M22.5774 250.555C22.5774 250.555 31.1143 238.309 43.9591 250.555C43.9591 250.555 35.8657 261.3 22.5774 253.683V250.555Z" fill="#6C63FF"/>
<path d="M21.247 232.324C21.247 232.324 29.8947 219.539 42.201 231.644C42.201 231.644 32.4447 242.933 21.247 235.316V232.324Z" fill="#6C63FF"/>
<path d="M22.0231 216.139C22.0231 216.139 31.1301 199.681 42.6445 210.834C42.6445 210.834 32.8881 224.979 22.0231 219.267V216.139Z" fill="#6C63FF"/>
<path d="M24.1296 197.233C24.1296 197.233 33.7751 180.911 44.9727 193.424C44.9727 193.424 33.5534 207.57 24.1296 200.225V197.233Z" fill="#6C63FF"/>
<path d="M27.3447 180.333C27.3447 180.333 38.7641 164.993 48.7264 171.104C48.7264 171.104 36.8279 187.396 26.8458 184.404L27.3447 180.333Z" fill="#6C63FF"/>
<path d="M31.336 164.313C31.336 164.313 44.5134 145.524 52.1791 151.8C52.1791 151.8 42.4703 166.373 30.4015 167.83L31.336 164.313Z" fill="#6C63FF"/>
<path d="M37.0971 145.733C37.0971 145.733 48.6313 130.392 57.0573 134.201C57.0573 134.201 47.1901 150.114 35.549 150.522L37.0971 145.733Z" fill="#6C63FF"/>
<path d="M42.3119 128.352C42.3119 128.352 55.0617 113.663 60.6051 116.247C60.6051 116.247 51.4031 132.569 41.7576 131.616L42.3119 128.352Z" fill="#6C63FF"/>
<path d="M47.4118 112.303C47.4118 112.303 58.3877 94.7522 64.3785 96.1123C64.3785 96.1123 57.7225 111.759 47.4118 114.085V112.303Z" fill="#6C63FF"/>
<path d="M52.9473 90.6621C52.9473 90.6621 62.6482 77.2114 67.8907 77.2406C67.8907 77.2406 60.2329 95.2137 52.5474 95.0485L52.9473 90.6621Z" fill="#6C63FF"/>
<path d="M56.2258 76.2545L65.5981 48.2359C65.5981 48.2359 66.0653 73.5634 55.034 81.4521L56.2258 76.2545Z" fill="#6C63FF"/>
<path d="M60.0309 45.3553C60.0309 45.3553 61.5831 21.9563 60.5853 20.0522C60.5853 20.0522 67.2849 39.5068 59.9676 55.6923L60.0309 45.3553Z" fill="#6C63FF"/>
<path d="M28.0891 288.735C28.0891 288.735 18.3724 281.347 12.0806 299.422C12.0806 299.422 20.7283 306.466 29.2335 293.345L28.0891 288.735Z" fill="#6C63FF"/>
<path d="M23.8168 268.571C23.8168 268.571 11.8985 261.902 6.11752 280.774C6.11752 280.774 15.3235 288.546 24.9017 273.342L23.8168 268.571Z" fill="#6C63FF"/>
<path d="M22.0231 251.677C22.0231 251.677 13.4863 239.431 0.641449 251.677C0.641449 251.677 8.7348 262.422 22.0231 254.805V251.677Z" fill="#6C63FF"/>
<path d="M20.954 232.324C20.954 232.324 12.3063 219.539 0 231.644C0 231.644 9.75636 242.933 20.954 235.316V232.324Z" fill="#6C63FF"/>
<path d="M22.0231 216.605C22.0231 216.605 15.957 198.17 2.7717 206.098C2.7717 206.098 9.89891 222.444 21.4846 219.665L22.0231 216.605Z" fill="#6C63FF"/>
<path d="M24.8938 197.141C24.8938 197.141 18.8634 178.385 5.49191 187.08C5.49191 187.08 13.6803 204.271 24.2998 200.036L24.8938 197.141Z" fill="#6C63FF"/>
<path d="M28.6316 180.426C28.6316 180.426 26.2559 159.863 15.1691 158.022C15.1691 158.022 17.5211 179.707 27.1388 184.132L28.6316 180.426Z" fill="#6C63FF"/>
<path d="M31.6171 164.352C31.6171 164.352 30.6906 139.578 21.5242 138.713C21.5242 138.713 21.833 157.517 30.5837 167.859L31.6171 164.352Z" fill="#6C63FF"/>
<path d="M38.0474 145.038C38.0474 145.038 35.3153 124.437 26.5647 121.921C26.5647 121.921 27.6496 141.871 37.1803 150.095L38.0474 145.038Z" fill="#6C63FF"/>
<path d="M43.3493 128.522C43.3493 128.522 43.2582 107.061 37.9128 103.909C37.9128 103.909 34.5987 123.339 41.8011 131.262L43.3493 128.522Z" fill="#6C63FF"/>
<path d="M47.8196 112.06C47.8196 112.06 47.0713 89.9626 41.5358 86.8489C41.5358 86.8489 39.6431 104.336 46.9921 113.507L47.8196 112.06Z" fill="#6C63FF"/>
<path d="M53.7194 92.4254C53.7194 92.4254 53.6877 74.4523 49.7361 70.2359C49.7361 70.2359 45.8082 89.9238 51.6565 96.0395L53.7194 92.4254Z" fill="#6C63FF"/>
<path d="M55.7625 75.3704L51.9178 45.4574C51.9178 45.4574 46.6952 69.9688 55.9447 80.7721L55.7625 75.3704Z" fill="#6C63FF"/>
<path d="M56.5109 45.6371C56.5109 45.6371 46.6436 25.5267 46.8456 23.2922C46.8456 23.2922 47.8949 44.3693 60.3081 54.8665L56.5109 45.6371Z" fill="#6C63FF"/>
<path d="M57.6671 39.6962C57.6671 39.6962 48.3542 11.1336 44.1412 8.82138C44.1412 8.82138 57.4453 17.1181 58.4431 38.8802L57.6671 39.6962Z" fill="#6C63FF"/>
<path d="M52.4999 95.2185L51.8624 94.9805C59.7221 63.5373 61.6821 43.49 57.386 38.4624L57.8413 37.8698C62.3988 43.1743 60.5497 63.003 52.4999 95.2185Z" fill="#444053"/>
<path d="M30.8569 168.84L29.9145 168.427C30.75 165.547 31.6488 162.622 32.5912 159.742C40.7954 134.657 47.7801 111.321 52.2583 93.4066L53.078 92.9209C48.5918 110.87 41.7298 135.099 33.5177 160.218C32.5793 163.045 31.6844 165.955 30.8569 168.84Z" fill="#444053"/>
<path d="M50.6864 341.907C50.5597 341.737 37.8218 324.138 28.9405 294.093C23.7365 276.504 20.8404 258.012 20.3601 239.309C19.7503 215.93 23.7495 189.825 30.5995 166.11L31.3439 167.179C15.965 220.404 22.0746 266.012 30.1798 293.476C38.9661 323.249 51.5614 340.653 51.6842 340.828L50.6864 341.907Z" fill="#444053"/>
<path d="M249.742 304.542C249.742 304.542 240.765 317.983 247.892 338.302L176.224 376.434L169.347 378.202L166.179 361.201L168.297 339.745V328.019L249.742 304.542Z" fill="#D5D6DB"/>
<path d="M23.4248 295.857L122.62 273.672L254.057 299.359L172.419 335.417L23.4248 295.857Z" fill="#6C63FF"/>
<path d="M23.4248 295.857L122.62 273.672L254.057 299.359L172.419 335.417L23.4248 295.857Z" fill="#6C63FF"/>
<path d="M23.4248 295.852C23.4248 295.852 14.1475 317.414 24.8383 337.331L171.936 376.434C171.936 376.434 162.805 359.258 172.407 335.417L23.4248 295.852Z" fill="#6C63FF"/>
<path opacity="0.1" d="M23.4248 295.852C23.4248 295.852 14.1475 317.414 24.8383 337.331L171.936 376.434C171.936 376.434 162.805 359.258 172.407 335.417L23.4248 295.852Z" fill="black"/>
<path opacity="0.1" d="M27.808 303.327C27.808 303.327 22.5062 319.105 27.808 329.316Z" fill="black"/>
<path d="M171.936 376.434L254.057 333.445C254.057 333.445 258.651 334.659 255.681 338.788C252.711 342.917 173.52 380.563 173.52 380.563L24.8383 337.331L171.936 376.434Z" fill="#6C63FF"/>
<path opacity="0.1" d="M171.936 376.434L254.057 333.445C254.057 333.445 258.651 334.659 255.681 338.788C252.711 342.917 173.52 380.563 173.52 380.563L24.8383 337.331L171.936 376.434Z" fill="black"/>
<path opacity="0.1" d="M165.205 339.759C165.205 339.759 157.286 351.418 165.205 368.905Z" fill="black"/>
<path opacity="0.1" d="M203.544 339.562L168.023 354.101L168.149 354.561L203.67 340.023L203.544 339.562Z" fill="black"/>
<path opacity="0.1" d="M210.659 338.116L168.012 358.011L168.153 358.465L210.8 338.57L210.659 338.116Z" fill="black"/>
<path opacity="0.1" d="M217.193 338.046L168.25 362.622L168.4 363.072L217.343 338.495L217.193 338.046Z" fill="black"/>
<path opacity="0.1" d="M224.298 335.941L168.821 366.685L168.984 367.128L224.461 336.384L224.298 335.941Z" fill="black"/>
<path opacity="0.1" d="M230.267 335.951L169.26 368.665L169.419 369.11L230.426 336.396L230.267 335.951Z" fill="black"/>
<path opacity="0.1" d="M243.324 333.231L170.18 371.987L170.337 372.433L243.481 333.677L243.324 333.231Z" fill="black"/>
<path opacity="0.3" d="M60.2764 298.227L129.965 280.254L172.419 290.212L115.314 312.8L60.2764 298.227Z" fill="white"/>
<path d="M254.057 299.359C254.057 299.359 257.661 301.142 255.546 303.896C253.432 306.65 172.407 335.417 172.407 335.417L254.057 299.359Z" fill="#6C63FF"/>
<path d="M289.056 257.822C289.056 257.822 280.084 271.258 287.211 291.582L215.543 329.714L208.665 331.492L205.497 314.49L207.647 293.039V281.298L289.056 257.822Z" fill="#D5D6DB"/>
<path d="M62.7432 249.131L161.934 226.952L293.376 252.639L211.738 288.697L62.7432 249.131Z" fill="#3A3768"/>
<path d="M62.7274 249.131C62.7274 249.131 53.4462 270.694 64.137 290.61L211.235 329.714C211.235 329.714 202.108 312.523 211.722 288.692L62.7274 249.131Z" fill="#3A3768"/>
<path opacity="0.1" d="M62.7274 249.131C62.7274 249.131 53.4462 270.694 64.137 290.61L211.235 329.714C211.235 329.714 202.108 312.523 211.722 288.692L165.205 276.339L62.7274 249.131Z" fill="black"/>
<path opacity="0.1" d="M67.1225 256.607C67.1225 256.607 61.8246 272.38 67.1225 282.595Z" fill="black"/>
<path d="M211.251 329.714L293.376 286.724C293.376 286.724 297.965 287.939 294.995 292.068C292.026 296.197 212.834 333.843 212.834 333.843L64.1528 290.61L211.251 329.714Z" fill="#3A3768"/>
<path opacity="0.1" d="M211.251 329.714L293.376 286.724C293.376 286.724 297.965 287.939 294.995 292.068C292.026 296.197 212.834 333.843 212.834 333.843L64.1528 290.61L211.251 329.714Z" fill="black"/>
<path opacity="0.1" d="M204.519 293.039C204.519 293.039 196.6 304.697 204.519 322.185Z" fill="black"/>
<path opacity="0.1" d="M242.862 292.847L207.341 307.386L207.466 307.846L242.987 293.308L242.862 292.847Z" fill="black"/>
<path opacity="0.1" d="M249.981 291.398L207.335 311.293L207.475 311.747L250.122 291.852L249.981 291.398Z" fill="black"/>
<path opacity="0.1" d="M256.51 291.322L207.567 315.898L207.717 316.348L256.66 291.771L256.51 291.322Z" fill="black"/>
<path opacity="0.1" d="M263.619 289.218L208.143 319.962L208.306 320.405L263.782 289.661L263.619 289.218Z" fill="black"/>
<path opacity="0.1" d="M269.583 289.222L208.576 321.936L208.735 322.381L269.742 289.667L269.583 289.222Z" fill="black"/>
<path opacity="0.1" d="M282.643 286.502L209.499 325.258L209.656 325.704L282.8 286.948L282.643 286.502Z" fill="black"/>
<path opacity="0.45" d="M99.5949 251.507L169.283 233.534L211.738 243.492L154.633 266.08L99.5949 251.507Z" fill="white"/>
<path d="M293.376 252.639C293.376 252.639 296.975 254.421 294.865 257.171C292.754 259.92 211.738 288.692 211.738 288.692L293.376 252.639Z" fill="#3A3768"/>
<path d="M292.778 204.373C292.778 204.373 283.802 228.501 290.929 248.82L219.261 276.266L212.399 278.049L209.231 261.047L211.35 239.591V227.85L292.778 204.373Z" fill="#D5D6DB"/>
<path d="M66.4771 195.688L165.672 173.504L297.114 199.19L215.472 235.248L66.4771 195.688Z" fill="#6C63FF"/>
<path d="M66.4771 195.683C66.4771 195.683 57.184 217.246 67.8748 237.162L214.973 276.266C214.973 276.266 205.842 259.075 215.456 235.248L66.4771 195.683Z" fill="#6C63FF"/>
<path opacity="0.1" d="M66.4771 195.683C66.4771 195.683 57.184 217.246 67.8748 237.162L214.973 276.266C214.973 276.266 205.842 259.075 215.456 235.248L66.4771 195.683Z" fill="black"/>
<path opacity="0.1" d="M70.8603 203.159C70.8603 203.159 65.5585 218.937 70.8603 229.147Z" fill="black"/>
<path d="M214.988 276.266L297.11 243.963C297.11 243.963 301.703 245.177 298.733 249.306C295.764 253.435 216.572 280.395 216.572 280.395L67.8907 237.162L214.988 276.266Z" fill="#6C63FF"/>
<path opacity="0.1" d="M214.988 276.266L297.11 243.963C297.11 243.963 301.703 245.177 298.733 249.306C295.764 253.435 216.572 280.395 216.572 280.395L67.8907 237.162L214.988 276.266Z" fill="black"/>
<path opacity="0.1" d="M208.257 239.591C208.257 239.591 200.338 251.249 208.257 268.737Z" fill="black"/>
<path opacity="0.1" d="M246.601 239.398L211.08 253.937L211.205 254.397L246.726 239.859L246.601 239.398Z" fill="black"/>
<path opacity="0.1" d="M253.718 237.952L211.071 257.847L211.212 258.301L253.858 238.406L253.718 237.952Z" fill="black"/>
<path opacity="0.1" d="M260.242 237.877L211.299 262.454L211.449 262.903L260.392 238.327L260.242 237.877Z" fill="black"/>
<path opacity="0.1" d="M267.358 235.77L211.881 266.514L212.044 266.956L267.521 236.212L267.358 235.77Z" fill="black"/>
<path opacity="0.1" d="M273.323 235.778L212.316 268.492L212.475 268.937L273.482 236.223L273.323 235.778Z" fill="black"/>
<path opacity="0.1" d="M286.382 233.061L213.238 271.817L213.395 272.263L286.539 233.507L286.382 233.061Z" fill="black"/>
<path opacity="0.3" d="M103.329 198.059L173.017 180.086L215.472 190.044L158.367 212.631L103.329 198.059Z" fill="white"/>
<path d="M297.11 199.19C297.11 199.19 300.713 200.973 298.599 203.727C296.484 206.482 215.471 235.248 215.471 235.248L297.11 199.19Z" fill="#6C63FF"/>
<path d="M122.913 51.7334C122.913 51.7334 107.866 50.621 109.624 63.5713C109.624 63.5713 109.272 65.8592 110.963 66.8988C110.963 66.8988 110.991 65.9272 112.507 66.2624C113.048 66.3765 113.599 66.4091 114.146 66.3596C114.884 66.2976 115.586 65.943 116.146 65.3492V65.3492C116.146 65.3492 120.379 63.2021 122.026 54.7111C122.026 54.7111 123.245 52.8603 123.214 52.3843L120.664 53.7152C120.664 53.7152 121.531 55.9643 120.85 57.8345C120.85 57.8345 120.767 53.7978 120.276 53.8901C120.177 53.8901 118.957 54.6722 118.957 54.6722C118.957 54.6722 120.45 58.5923 119.321 61.4388C119.321 61.4388 119.749 56.6104 118.49 54.9539L116.7 56.2363C116.7 56.2363 118.446 60.2827 117.262 63.5859C117.262 63.5859 117.567 58.5194 116.324 56.5472L114.701 58.1017C114.701 58.1017 116.344 62.0897 115.342 64.8294C115.342 64.8294 115.211 58.9323 114.352 58.4854C114.352 58.4854 112.931 60.0204 112.717 60.6519C112.717 60.6519 113.841 63.5664 113.141 65.0772C113.141 65.0772 112.717 61.1474 112.349 61.1279C112.349 61.1279 110.935 63.7316 110.789 65.4998C110.857 63.8513 111.276 62.2537 112.004 60.8656C111.19 61.0547 110.438 61.5327 109.842 62.2403C109.842 62.2403 110.06 60.3993 112.357 60.239C112.357 60.239 113.525 58.262 113.837 58.1454C113.837 58.1454 111.553 57.9073 110.171 58.6603C110.171 58.6603 111.39 56.9261 114.253 57.6888L115.837 56.0858C115.837 56.0858 112.836 55.6 111.561 56.1392C111.561 56.1392 113.03 54.6042 116.269 55.7214L118.015 54.4439C118.015 54.4439 115.453 53.7687 113.929 54.0116C113.929 54.0116 115.536 52.9477 118.526 54.099L119.769 53.4141C119.769 53.4141 117.896 52.9623 117.346 52.8895C116.795 52.8166 116.768 52.632 116.768 52.632C117.956 52.3925 119.176 52.5606 120.292 53.1178C120.292 53.1178 122.964 51.9374 122.913 51.7334Z" fill="#6C63FF"/>
<path opacity="0.1" d="M334.591 104.963C334.591 104.963 319.545 103.85 321.303 116.801C321.303 116.801 320.95 119.089 322.641 120.128C322.641 120.128 322.669 119.157 324.185 119.492C324.727 119.603 325.277 119.636 325.825 119.589C326.556 119.523 327.25 119.169 327.804 118.579V118.579C327.804 118.579 332.041 116.432 333.684 107.941C333.684 107.941 334.904 106.09 334.872 105.614L332.33 106.945C332.33 106.945 333.197 109.194 332.516 111.064C332.516 111.064 332.433 107.027 331.946 107.12C331.847 107.12 330.624 107.902 330.624 107.902C330.624 107.902 332.116 111.822 330.992 114.668C330.992 114.668 331.419 109.84 330.156 108.183L328.367 109.466C328.367 109.466 330.113 113.512 328.929 116.815C328.929 116.815 329.234 111.749 327.99 109.777L326.371 111.331C326.371 111.331 328.01 115.319 327.008 118.059C327.008 118.059 326.878 112.162 326.019 111.715C326.019 111.715 324.601 113.25 324.383 113.881C324.383 113.881 325.508 116.796 324.811 118.307C324.811 118.307 324.383 114.377 324.019 114.357C324.019 114.357 322.605 116.961 322.459 118.729C322.528 117.08 322.948 115.482 323.678 114.095C322.863 114.285 322.11 114.763 321.513 115.47C321.513 115.47 321.734 113.629 324.027 113.469C324.027 113.469 325.195 111.491 325.508 111.37C325.508 111.37 323.227 111.137 321.841 111.89C321.841 111.89 323.061 110.156 325.924 110.918L327.507 109.315C327.507 109.315 324.502 108.83 323.231 109.369C323.231 109.369 324.696 107.834 327.939 108.951L329.681 107.673C329.681 107.673 327.119 106.998 325.595 107.241C325.595 107.241 327.202 106.177 330.192 107.329L331.439 106.644C331.439 106.644 329.562 106.192 329.012 106.119C328.462 106.046 328.434 105.862 328.434 105.862C329.623 105.619 330.843 105.787 331.958 106.347C331.958 106.347 334.638 105.167 334.591 104.963Z" fill="#6C63FF"/>
<path opacity="0.1" d="M148.254 131.738C148.254 131.738 141.697 115.062 133.35 123.281C133.35 123.281 131.549 124.019 131.636 126.336C131.636 126.336 132.329 125.894 132.824 127.682C133.008 128.314 133.253 128.917 133.552 129.479C133.957 130.241 134.553 130.821 135.251 131.131C135.251 131.131 138.842 134.618 145.688 132.238C145.688 132.238 147.601 132.641 147.913 132.36L145.728 130.286C145.728 130.286 144.54 132.311 142.885 132.491C142.885 132.491 145.72 130.436 145.415 129.96C145.352 129.863 144.227 128.925 144.227 128.925C144.227 128.925 142.164 132.437 139.59 132.617C139.59 132.617 143.233 130.723 143.796 128.561L142.014 127.269C142.014 127.269 139.982 131.116 137.056 131.456C137.056 131.456 140.81 129.314 141.606 127.021L139.713 126.05C139.713 126.05 137.674 129.751 135.235 130.018C135.235 130.018 139.369 127.002 139.266 125.86C139.266 125.86 137.48 125.093 136.926 125.166C136.926 125.166 135.413 127.784 133.988 127.784C133.988 127.784 136.573 125.408 136.415 125.025C136.415 125.025 133.873 124.782 132.535 125.51C133.74 124.775 135.082 124.44 136.427 124.539C135.893 123.759 135.186 123.187 134.392 122.892C134.392 122.892 135.809 122.232 137.04 124.607C137.04 124.607 139.02 124.894 139.254 125.17C139.254 125.17 138.308 122.615 137.1 121.503C137.1 121.503 138.929 121.955 139.765 125.389L141.685 126.322C141.685 126.322 140.58 122.863 139.563 121.77C139.563 121.77 141.368 122.591 142.156 126.628L143.914 127.871C143.914 127.871 143.15 124.796 142.231 123.286C142.231 123.286 143.772 124.49 144.409 128.25L145.506 129.251C145.506 129.251 144.912 127.021 144.714 126.399C144.516 125.778 144.615 125.651 144.615 125.651C145.368 126.805 145.845 128.192 145.993 129.659C145.993 129.659 148.111 131.884 148.254 131.738Z" fill="#6C63FF"/>
<path opacity="0.1" d="M300.214 81.4036C300.214 81.4036 293.661 64.7274 285.31 72.9465C285.31 72.9465 283.513 73.6848 283.596 76.0019C283.596 76.0019 284.293 75.5647 284.784 77.3475C284.968 77.982 285.214 78.587 285.516 79.1496C285.92 79.9103 286.515 80.4885 287.211 80.7964V80.7964C287.211 80.7964 290.806 84.2841 297.648 81.9088C297.648 81.9088 299.561 82.3071 299.878 82.0253L297.704 79.9463C297.704 79.9463 296.516 81.9768 294.865 82.1565C294.865 82.1565 297.696 80.0969 297.391 79.6208C297.328 79.5237 296.203 78.5862 296.203 78.5862C296.203 78.5862 294.144 82.0982 291.566 82.2779C291.566 82.2779 295.213 80.3835 295.775 78.2267L293.966 76.9443C293.966 76.9443 291.939 80.7867 289.009 81.1315C289.009 81.1315 292.762 78.9845 293.562 76.6917L291.665 75.7202C291.665 75.7202 289.626 79.4265 287.191 79.6888C287.191 79.6888 291.321 76.6723 291.218 75.5356C291.218 75.5356 289.436 74.7632 288.882 74.841C288.882 74.841 287.369 77.4543 285.94 77.4543C285.94 77.4543 288.529 75.079 288.371 74.6952C288.371 74.6952 285.829 74.4523 284.487 75.181C285.693 74.4454 287.035 74.1104 288.379 74.2095C287.848 73.4288 287.141 72.8563 286.348 72.5627C286.348 72.5627 287.765 71.9021 288.997 74.2775C288.997 74.2775 290.976 74.5689 291.21 74.8458C291.21 74.8458 290.264 72.2859 289.052 71.1735C289.052 71.1735 290.881 71.6301 291.717 75.0838L293.641 76.0165C293.641 76.0165 292.536 72.553 291.519 71.4601C291.519 71.4601 293.324 72.281 294.108 76.3177L295.87 77.5612C295.87 77.5612 295.102 74.4912 294.184 72.9756C294.184 72.9756 295.728 74.1803 296.361 77.9401L297.458 78.9408C297.458 78.9408 296.868 76.7111 296.666 76.0894C296.464 75.4676 296.567 75.3461 296.567 75.3461C297.318 76.5005 297.794 77.8877 297.941 79.3537C297.941 79.3537 300.091 81.559 300.214 81.4036Z" fill="#6C63FF"/>
<path opacity="0.1" d="M321.156 163.89C321.156 163.89 314.603 147.209 306.241 155.428C306.241 155.428 304.443 156.167 304.526 158.484C304.526 158.484 305.223 158.047 305.714 159.829C305.897 160.464 306.142 161.069 306.443 161.632C306.846 162.392 307.441 162.97 308.137 163.278C308.137 163.278 311.732 166.771 318.579 164.391C318.579 164.391 320.487 164.794 320.804 164.507L318.618 162.433C318.618 162.433 317.43 164.463 315.775 164.643C315.775 164.643 318.606 162.584 318.301 162.108C318.238 162.01 317.114 161.073 317.114 161.073C317.114 161.073 315.055 164.585 312.477 164.77C312.477 164.77 316.124 162.87 316.686 160.713L314.9 159.421C314.9 159.421 312.873 163.269 309.943 163.609C309.943 163.609 313.696 161.462 314.496 159.169L312.6 158.197C312.6 158.197 310.56 161.899 308.125 162.166C308.125 162.166 312.259 159.149 312.156 158.008C312.156 158.008 310.37 157.235 309.816 157.313C309.816 157.313 308.304 159.927 306.874 159.927C306.874 159.927 309.464 157.551 309.305 157.167C309.305 157.167 306.763 156.925 305.421 157.653C306.628 156.918 307.972 156.583 309.317 156.682C308.785 155.9 308.077 155.327 307.282 155.035C307.282 155.035 308.699 154.369 309.931 156.75C309.931 156.75 311.911 157.036 312.144 157.313C312.144 157.313 311.198 154.758 309.99 153.641C309.99 153.641 311.82 154.097 312.655 157.551L314.575 158.484C314.575 158.484 313.471 155.02 312.453 153.932C312.453 153.932 314.259 154.748 315.043 158.79L316.805 160.029C316.805 160.029 316.037 156.959 315.118 155.443C315.118 155.443 316.662 156.648 317.3 160.412L318.396 161.384C318.396 161.384 317.803 159.154 317.605 158.532C317.407 157.911 317.506 157.789 317.506 157.789C318.258 158.942 318.734 160.33 318.88 161.797C318.88 161.797 321.034 164.036 321.156 163.89Z" fill="#6C63FF"/>
<path opacity="0.1" d="M79.9634 380.913C84.9908 380.913 89.0664 380.354 89.0664 379.665C89.0664 378.975 84.9908 378.416 79.9634 378.416C74.9359 378.416 70.8604 378.975 70.8604 379.665C70.8604 380.354 74.9359 380.913 79.9634 380.913Z" fill="#6C63FF"/>
<path opacity="0.1" d="M20.2888 359.695C25.3163 359.695 29.3918 359.136 29.3918 358.447C29.3918 357.757 25.3163 357.198 20.2888 357.198C15.2613 357.198 11.1858 357.757 11.1858 358.447C11.1858 359.136 15.2613 359.695 20.2888 359.695Z" fill="#6C63FF"/>
<path opacity="0.1" d="M125.451 395.005C130.478 395.005 134.554 394.446 134.554 393.757C134.554 393.067 130.478 392.508 125.451 392.508C120.423 392.508 116.348 393.067 116.348 393.757C116.348 394.446 120.423 395.005 125.451 395.005Z" fill="#6C63FF"/>
<path opacity="0.1" d="M358.55 364.31C363.578 364.31 367.653 363.751 367.653 363.061C367.653 362.372 363.578 361.813 358.55 361.813C353.523 361.813 349.447 362.372 349.447 363.061C349.447 363.751 353.523 364.31 358.55 364.31Z" fill="#6C63FF"/>
<path opacity="0.1" d="M282.8 358.252C287.827 358.252 291.903 357.693 291.903 357.004C291.903 356.314 287.827 355.755 282.8 355.755C277.772 355.755 273.697 356.314 273.697 357.004C273.697 357.693 277.772 358.252 282.8 358.252Z" fill="#6C63FF"/>
<path opacity="0.1" d="M233.796 387.796C239.742 387.796 244.562 386.781 244.562 385.528C244.562 384.275 239.742 383.259 233.796 383.259C227.85 383.259 223.03 384.275 223.03 385.528C223.03 386.781 227.85 387.796 233.796 387.796Z" fill="#6C63FF"/>
<path d="M238.599 362.726C238.599 362.726 223.608 372.228 231.353 383.419C231.353 383.419 232.082 385.848 234.188 385.678C234.188 385.678 233.769 384.736 235.376 383.983C235.948 383.712 236.492 383.358 236.996 382.929C237.676 382.351 238.185 381.518 238.445 380.554V380.554C238.445 380.554 241.51 375.521 239.134 366.209C239.134 366.209 239.443 363.576 239.173 363.149L237.352 366.214C237.352 366.214 239.233 367.764 239.451 370.042C239.451 370.042 237.471 366.219 237.075 366.641C236.988 366.729 236.172 368.317 236.172 368.317C236.172 368.317 239.435 371.033 239.676 374.559C239.676 374.559 237.839 369.619 235.855 368.915L234.719 371.402C234.719 371.402 238.283 374.064 238.679 378.066C238.679 378.066 236.608 372.99 234.493 371.965L233.658 374.593C233.658 374.593 237.095 377.275 237.411 380.607C237.411 380.607 234.537 375.035 233.503 375.21C233.503 375.21 232.854 377.678 232.941 378.44C232.941 378.44 235.368 380.432 235.412 382.39C235.412 382.39 233.171 378.916 232.826 379.145C232.826 379.145 232.684 382.637 233.373 384.454C233.373 384.454 232.185 381.86 232.379 379.145C231.684 379.898 231.185 380.884 230.942 381.982C230.942 381.982 230.296 380.063 232.422 378.295C232.422 378.295 232.624 375.579 232.87 375.244C232.87 375.244 230.569 376.624 229.591 378.314C229.591 378.314 229.952 375.793 233.072 374.54L233.864 371.878C233.864 371.878 230.744 373.5 229.781 374.928C229.781 374.928 230.474 372.427 234.109 371.227L235.186 368.798C235.186 368.798 232.414 369.945 231.06 371.227C231.06 371.227 232.11 369.075 235.519 368.084L236.394 366.554C236.394 366.554 234.382 367.433 233.82 367.749C233.258 368.065 233.147 367.909 233.147 367.909C234.175 366.843 235.423 366.147 236.754 365.898C236.754 365.898 238.738 362.891 238.599 362.726Z" fill="#6C63FF"/>
<path d="M283.093 183.273C280.503 174.641 266.249 173.829 260.064 176.03C255.669 177.599 246.404 179.367 241.454 180.256L241.134 179.882C241.775 179.649 241.791 179.076 241.712 178.225C241.666 177.105 241.679 175.982 241.751 174.864C244.784 176.02 247.485 173.285 247.485 173.285C251.048 171.342 250.09 163.026 250.771 160.753C251.282 159.053 251.832 149.036 252.078 144.043H252.129L252.157 142.367C252.193 141.643 252.208 141.22 252.208 141.22C252.208 141.22 252.557 129.008 253.238 126.536C253.871 124.262 254.386 112.808 254.465 110.992C254.465 110.836 254.465 110.754 254.465 110.754L254.414 109.695C254.45 108.922 254.465 108.062 254.461 107.159C254.461 103.006 254.109 97.774 254.065 96.9288C254.065 96.8074 254.065 96.6617 254.065 96.4868C254.093 94.7138 253.911 85.8341 247.754 82.4775C245.485 81.2339 242.757 79.7524 240.116 78.3097C239.435 71.0961 237.879 63.9215 238.013 56.6545C238.013 55.5616 238.093 54.4686 238.18 53.3805C238.18 53.6962 238.152 54.0168 238.148 54.352C238.148 55.0564 238.148 55.7656 238.148 56.4699C238.382 47.3814 241.181 38.2442 240.92 29.35C240.896 30.2195 240.844 31.0939 240.777 31.9682C240.914 28.9598 240.657 25.944 240.017 23.0351C239.779 22.0102 239.459 20.9512 238.774 20.2663C238.126 19.7147 237.384 19.3539 236.604 19.2122C234.73 18.6238 232.827 18.1889 230.906 17.9103C230.614 16.8143 230.181 15.7828 229.623 14.8549C225.608 8.09315 219.661 1.73942 212.629 0.282139C209.101 -0.4465 205.042 0.160698 202.643 3.25499C202.392 3.52681 202.157 3.81892 201.938 4.12935C200.647 6.01896 200.093 8.50119 198.77 10.3859C198.683 10.5122 198.584 10.6288 198.489 10.7503C195.899 13.5919 191.865 14.1846 188.986 16.7348C188.479 17.1926 188.003 17.7012 187.565 18.2552C186.405 19.6654 185.365 21.2164 184.46 22.8845C183.166 25.119 181.835 27.4458 181.423 30.1126C180.596 35.456 183.561 40.5224 184.112 45.8998C185.339 57.9321 174.486 68.6091 176.541 80.481C177.09 83.3976 178.3 86.0638 180.033 88.1706C175.801 92.8727 172.197 97.434 172.197 97.434V97.706H171.528L171.596 98.6776H171.528L171.897 103.948L171.528 111.623C171.528 111.623 171.528 111.706 171.528 111.861V111.9V112.109C171.528 112.109 171.528 112.191 171.528 112.347H171.552C171.675 115.159 172.162 125.273 172.74 127.405C173.421 129.878 173.765 142.09 173.765 142.09C173.765 142.09 174.518 159.349 175.207 161.632C175.896 163.915 174.918 172.207 178.493 174.165C179.539 175.149 180.778 175.779 182.085 175.991C181.902 177.808 182.017 179.124 182.607 179.537C182.86 179.719 183.146 179.819 183.439 179.828C183.196 180.27 182.98 180.733 182.793 181.213C181.374 181.031 179.98 180.628 178.644 180.013C174.803 178.07 162.057 173.698 158.355 176.773C154.653 179.848 145.744 182.636 149.858 195.013C153.972 207.39 155.888 207.701 155.888 207.701C157.154 208.829 158.265 210.199 159.178 211.757C160.414 214.036 171.924 219.248 174.803 219.248C176.026 219.225 177.25 219.299 178.465 219.471C178.465 219.471 175.341 222.833 175.757 224.786C176.173 226.738 174.807 242.37 174.807 242.37C174.807 242.37 177.975 246.285 179.329 241.151L179.376 241.228C179.63 241.651 181 243.56 183.577 241.151C184.632 240.169 185.753 239.298 186.927 238.547L199.408 236.381C200.709 236.281 202.014 236.269 203.316 236.347C205.296 236.546 207.24 235.108 208.463 233.996C211.049 235.2 213.955 236.517 215.337 236.998C218.14 237.969 231.025 242.21 234.038 240.884C234.664 240.578 235.221 240.091 235.661 239.465L238.536 239.577L237.19 239.907C237.19 239.907 239.811 239.961 243.375 240.019L243.224 240.126L247.695 240.077C254.236 240.15 261.585 240.174 262.551 239.907C264.063 239.494 271.923 239.786 274.239 239.907H274.885C274.885 239.907 283.521 237.794 279.957 227.044C277.217 218.786 268.795 216.387 265.057 215.726C266.11 215.469 267.017 215.27 267.619 215.153C270.228 214.667 275.297 211.753 275.708 210.757C276.12 209.761 280.369 206.871 281.466 205.224C282.562 203.577 285.694 191.904 283.093 183.273ZM211.563 207.429L211.14 207.599L210.855 207.716L210.308 208.377C209.873 208.017 209.406 207.638 208.919 207.25C209.778 207.313 210.661 207.376 211.563 207.429Z" fill="url(#paint0_linear)"/>
<path d="M236.81 156.21C236.81 156.21 242.868 175.641 246.313 173.698C249.757 171.755 248.823 163.497 249.48 161.233C250.138 158.97 250.866 141.803 250.866 141.803C250.866 141.803 251.199 129.659 251.856 127.201C252.466 124.942 252.961 113.551 253.044 111.759C253.044 111.603 253.044 111.521 253.044 111.521L252.391 97.4336L248.692 96.3018L240.116 100.188L238.928 108.509L238.465 111.759L238.267 113.143L236.81 156.21Z" fill="#BE6F72"/>
<path opacity="0.1" d="M238.805 152.956C238.805 152.956 244.586 158.761 246.328 159.271C248.071 159.781 249.14 164.308 249.14 164.308" fill="black"/>
<path d="M189.433 157.061C189.433 157.061 183.375 176.491 179.93 174.548C176.486 172.605 177.42 164.347 176.763 162.083C176.106 159.82 175.377 142.653 175.377 142.653C175.377 142.653 175.044 130.509 174.387 128.051C173.777 125.792 173.282 114.401 173.199 112.609C173.199 112.453 173.199 112.371 173.199 112.371L173.856 98.2837L177.555 97.1519L186.131 101.038L187.319 109.359L187.782 112.609L187.98 113.993L189.433 157.061Z" fill="#BE6F72"/>
<path d="M228.883 53.0789H215.361V78.9359H228.883V53.0789Z" fill="#3E373A"/>
<path opacity="0.1" d="M228.883 53.0789H215.361V78.9359H228.883V53.0789Z" fill="black"/>
<path d="M187.058 176.413C187.058 176.413 182.437 182.646 184.151 183.777C185.866 184.909 196.957 206.122 196.957 206.122C196.957 206.122 233.385 211.626 240.254 203.368C247.124 195.11 246.986 180.358 246.986 180.358C246.986 180.358 241.466 181.815 240.864 181.023C240.262 180.231 236.956 176.413 236.956 176.413C236.956 176.413 190.225 172.935 187.058 176.413Z" fill="#4B4B5B"/>
<path opacity="0.02" d="M187.058 176.413C187.058 176.413 182.437 182.646 184.151 183.777C185.866 184.909 196.957 206.122 196.957 206.122C196.957 206.122 233.385 211.626 240.254 203.368C247.124 195.11 246.986 180.358 246.986 180.358C246.986 180.358 241.466 181.815 240.864 181.023C240.262 180.231 236.956 176.413 236.956 176.413C236.956 176.413 190.225 172.935 187.058 176.413Z" fill="black"/>
<path d="M252.636 97.6376L240.757 109.296L237.166 109.616L235.847 109.733L213.702 111.725L190.736 109.665L187.319 109.359L182.963 108.97L173.856 98.2837C173.856 98.2837 180.303 89.8121 185.949 84.0947C188.174 81.8359 190.277 80.0094 191.809 79.2905L192.07 79.1788C193.034 78.7177 193.895 77.9817 194.581 77.0317C199.039 71.3921 203.161 57.4751 203.161 57.4751C203.161 57.4751 222.828 45.0105 220.453 61.3611C218.077 77.7118 229.294 73.6703 229.294 73.6703L232.993 75.7396L234.454 76.5606L238.18 78.6542L246.586 83.3855C253.182 87.1112 252.636 97.6376 252.636 97.6376Z" fill="#BE6F72"/>
<path opacity="0.1" d="M212.779 70.7897C222.547 70.7897 230.466 61.0748 230.466 49.0908C230.466 37.1069 222.547 27.392 212.779 27.392C203.011 27.392 195.092 37.1069 195.092 49.0908C195.092 61.0748 203.011 70.7897 212.779 70.7897Z" fill="black"/>
<path opacity="0.1" d="M252.664 113.094H173.199C173.199 112.939 173.199 112.856 173.199 112.856L173.856 98.7694C173.856 98.7694 180.303 90.2978 185.949 84.5804L235.839 82.1516L238.16 79.1496L246.566 83.8809C253.167 87.6018 252.636 98.1282 252.636 98.1282C252.636 98.1282 253.539 110.326 252.664 113.094Z" fill="black"/>
<path d="M252.664 112.609H173.199C173.199 112.453 173.199 112.371 173.199 112.371L173.856 98.2837C173.856 98.2837 180.303 89.812 185.949 84.0947L235.839 81.6659L238.16 78.6639L246.566 83.3952C253.167 87.1161 252.636 97.6425 252.636 97.6425C252.636 97.6425 253.539 109.84 252.664 112.609Z" fill="#E7C7CA"/>
<path opacity="0.1" d="M200.041 73.1068C200.041 73.1068 212.577 92.7023 229.275 72.7036C245.972 52.7049 231.124 117.311 231.124 117.311L195.092 122.557L200.041 73.1068Z" fill="black"/>
<path d="M200.041 74.0783C200.041 74.0783 212.577 93.6738 229.275 73.6751C245.972 53.6764 231.124 118.282 231.124 118.282L195.092 123.529L200.041 74.0783Z" fill="#E7C7CA"/>
<path opacity="0.1" d="M234.434 77.5175L235.76 102.335L237.182 110.593L238.267 116.908C238.267 116.908 241.038 165.484 240.247 167.912C239.455 170.341 240.642 172.284 240.809 173.576C240.975 174.868 240.642 178.113 240.773 179.571C240.904 181.028 240.773 181.674 237.74 181.154C234.707 180.634 230.478 179.731 230.478 179.731C230.478 179.731 219.787 180.702 216.093 179.085C212.399 177.467 205.402 177.462 205.402 177.462C205.402 177.462 194.842 177.788 191.413 177.302C187.984 176.816 186.131 182.485 183.89 180.863C181.649 179.24 186.527 163.541 188.111 159.004C189.695 154.467 186.001 142.974 186.001 142.974L190.752 110.637L191.809 103.306V80.262L192.071 80.1503C193.034 79.6892 193.895 78.9532 194.581 78.0032L195.769 101.193L232.989 102.816V76.716" fill="black"/>
<path d="M234.434 76.5459L235.76 101.363L237.182 109.621L238.267 115.936C238.267 115.936 241.038 164.512 240.247 166.941C239.455 169.37 240.642 171.313 240.809 172.605C240.975 173.897 240.642 177.142 240.773 178.599C240.904 180.056 240.773 180.702 237.74 180.183C234.707 179.663 230.478 178.759 230.478 178.759C230.478 178.759 219.787 179.731 216.093 178.113C212.399 176.496 205.402 176.491 205.402 176.491C205.402 176.491 194.842 176.816 191.413 176.331C187.984 175.845 186.131 181.514 183.89 179.891C181.649 178.269 186.527 162.569 188.111 158.032C189.695 153.495 186.001 142.002 186.001 142.002L190.752 109.665L191.809 102.335V79.2905L192.071 79.1788C193.034 78.7176 193.895 77.9817 194.581 77.0317L195.769 100.222L232.989 101.844V75.7444" fill="#E7C7CA"/>
<path opacity="0.1" d="M238.714 24.7543C238.489 23.7391 238.176 22.685 237.526 22.0049C236.906 21.4587 236.19 21.0992 235.436 20.9557C233.63 20.373 231.793 19.9413 229.94 19.6635C229.675 18.5849 229.274 17.5638 228.752 16.6373C224.872 9.91435 219.13 3.5752 212.375 2.14221C208.839 1.38928 204.741 2.06449 202.476 5.48423C201.233 7.36412 200.698 9.85606 199.443 11.7019C197.024 15.2869 192.657 15.7289 189.608 18.5026C187.98 19.9599 186.8 22.0729 185.648 24.1228C184.401 26.3427 183.118 28.6549 182.722 31.3072C181.93 36.6068 184.785 41.6587 185.312 47.0069C186.499 58.9712 176.046 69.585 178.022 81.389C179.174 88.2722 184.357 93.12 189.719 95.578C191.607 96.4475 193.765 97.3121 194.648 99.5369C195.044 100.508 195.112 101.631 195.484 102.612C196.735 105.886 200.849 106.012 203.058 103.627C205.268 101.242 205.965 97.385 206.226 93.7855C207.287 78.0664 202.156 62.5366 202.753 46.7786C202.932 42.0133 204.024 36.6068 207.505 34.45C212.189 31.5355 217.824 36.3931 222.979 35.4653C225.418 42.7475 225.936 50.7845 224.46 58.4465C223.64 62.6386 222.223 66.7045 222.12 71.0277C221.965 77.6097 224.86 83.6234 227.362 89.4428C227.899 90.5311 228.258 91.7371 228.419 92.9937C228.459 94.2687 228.265 95.5384 227.853 96.7098C226.44 101.378 224 105.711 223.723 110.68C223.642 111.26 223.749 111.856 224.02 112.342C224.299 112.665 224.659 112.864 225.042 112.905C229.318 113.804 233.016 109.155 235.103 104.487C237.43 99.3309 238.785 93.6012 239.071 87.7184C239.502 77.8283 236.612 68.0986 236.79 58.1988C236.996 46.9438 241.141 35.611 238.714 24.7543Z" fill="black"/>
<path d="M239.11 24.2685C238.884 23.2533 238.572 22.1992 237.922 21.5191C237.302 20.9729 236.586 20.6134 235.832 20.4699C234.026 19.8873 232.189 19.4556 230.336 19.1778C230.071 18.0991 229.67 17.078 229.148 16.1515C225.267 9.42858 219.526 3.08942 212.771 1.65643C209.235 0.903504 205.137 1.57871 202.872 4.99845C201.629 6.87834 201.094 9.37029 199.839 11.2162C197.42 14.8011 193.052 15.2431 190.004 18.0168C188.376 19.4741 187.196 21.5871 186.044 23.637C184.797 25.857 183.514 28.1692 183.118 30.8214C182.326 36.121 185.181 41.1729 185.707 46.5211C186.895 58.4854 176.442 69.0992 178.418 80.9032C179.57 87.7864 184.753 92.6343 190.114 95.0922C192.003 95.9617 194.161 96.8264 195.044 99.0511C195.44 100.023 195.507 101.145 195.88 102.126C197.131 105.4 201.245 105.526 203.454 103.141C205.664 100.756 206.361 96.8992 206.622 93.2998C207.683 77.5806 202.551 62.0509 203.149 46.2928C203.328 41.5275 204.42 36.121 207.901 33.9643C212.585 31.0497 218.219 35.9073 223.375 34.9795C225.814 42.2617 226.332 50.2988 224.856 57.9608C224.036 62.1529 222.619 66.2187 222.516 70.5419C222.361 77.124 225.256 83.1377 227.758 88.9571C228.295 90.0453 228.654 91.2514 228.815 92.508C228.855 93.7829 228.661 95.0526 228.249 96.224C226.835 100.892 224.396 105.225 224.119 110.194C224.038 110.775 224.145 111.371 224.416 111.856C224.695 112.18 225.055 112.378 225.438 112.419C229.714 113.318 233.412 108.669 235.499 104.001C237.825 98.8451 239.181 93.1154 239.466 87.2326C239.898 77.3426 237.008 67.6128 237.186 57.713C237.392 46.458 241.537 35.1252 239.11 24.2685Z" fill="#3E373A"/>
<path d="M230.363 239.348L246.071 239.965L243.818 225.674L231.785 227.078L230.363 239.348Z" fill="#C3C7D9"/>
<path d="M279.034 205.476C277.977 207.094 273.887 210.008 273.491 210.98C273.095 211.951 268.213 214.866 265.703 215.352C263.192 215.837 255.277 217.946 253.824 219.077C252.782 219.894 244.424 222.478 238.932 223.911C237.444 224.342 235.939 224.675 234.422 224.907C232.046 225.067 206.048 214.22 206.048 214.22L211.061 207.905L211.338 207.788C212.755 207.201 219.304 204.485 222.939 203.193C227.033 201.736 231.785 195.746 231.785 195.746C231.785 195.746 238.778 192.832 239.704 192.506C240.631 192.181 237.328 181.174 237.328 181.174C237.328 181.174 252.505 178.589 258.445 176.399C264.384 174.208 278.112 175.019 280.618 183.602C283.125 192.186 280.107 203.859 279.034 205.476Z" fill="#4B4B5B"/>
<path d="M209.873 232.839C209.873 232.839 206.84 236.725 203.803 236.404C200.766 236.084 190.146 237.376 190.146 237.376C188.222 238.318 186.42 239.599 184.797 241.179C182.314 243.579 180.996 241.665 180.75 241.257L180.707 241.179C179.384 246.285 176.351 242.394 176.351 242.394C176.351 242.394 177.67 226.85 177.266 224.907C176.862 222.964 179.875 219.626 179.875 219.626L183.439 218.514L192.466 215.677L205.402 221.181L209.873 232.839Z" fill="#E7C7CA"/>
<path opacity="0.1" d="M183.423 218.514L180.75 241.257L180.707 241.179C179.384 246.285 176.351 242.394 176.351 242.394C176.351 242.394 177.67 226.85 177.266 224.907C176.862 222.964 179.875 219.626 179.875 219.626L183.423 218.514Z" fill="black"/>
<path opacity="0.1" d="M202.104 153.821C202.104 153.821 209.097 156.735 215.171 153.821Z" fill="black"/>
<path opacity="0.1" d="M225.976 159.329C225.976 159.329 228.879 161.107 231.124 159.329Z" fill="black"/>
<path opacity="0.1" d="M225.976 163.545C225.976 163.545 230.858 164.347 231.785 162.729Z" fill="black"/>
<path opacity="0.1" d="M224.392 172.605C224.392 172.605 233.563 171.148 235.84 169.205Z" fill="black"/>
<path opacity="0.1" d="M196.41 169.205C196.41 169.205 201.558 172.765 205.386 172.605Z" fill="black"/>
<path opacity="0.1" d="M238.928 223.911C237.44 224.342 235.935 224.675 234.418 224.907C232.042 225.067 206.044 214.22 206.044 214.22L211.057 207.905L211.334 207.788C212.126 208.473 212.775 209.061 213.238 209.508C215.42 211.616 217.527 208.862 218.318 208.862C219.11 208.862 225.972 215.823 225.972 215.823C225.972 215.823 232.308 217.606 233.365 219.223C234.422 220.841 238.116 220.52 238.774 221.652C238.972 222.002 238.995 222.862 238.928 223.911Z" fill="black"/>
<path d="M190.146 181.834C190.146 181.834 183.74 182.286 180.045 180.377C176.351 178.468 164.076 174.062 160.513 177.156C156.949 180.251 148.369 182.986 152.328 195.295C156.288 207.604 158.137 207.924 158.137 207.924C159.362 209.052 160.432 210.413 161.305 211.956C162.493 214.225 173.579 219.403 176.351 219.403C179.123 219.403 184.005 219.403 190.867 225.232C197.729 231.061 203.933 231.712 203.933 231.712C203.933 231.712 212.644 236.084 215.357 237.055C218.069 238.027 230.462 242.234 233.369 240.941C236.275 239.649 238.12 231.547 238.12 231.547C238.12 231.547 239.439 224.26 238.778 223.129C238.116 221.997 234.422 222.317 233.369 220.7C232.316 219.082 225.976 217.3 225.976 217.3C225.976 217.3 219.13 210.334 218.338 210.334C217.546 210.334 215.44 213.083 213.258 210.98C208.912 207.031 204.346 203.46 199.594 200.293C194.581 197.053 190.146 181.834 190.146 181.834Z" fill="#4B4B5B"/>
<path opacity="0.1" d="M177.266 186.532C178.406 186.246 179.586 186.287 180.711 186.652C181.837 187.016 182.879 187.695 183.755 188.635C186.923 191.875 197.582 198.379 197.582 198.379" fill="black"/>
<path opacity="0.1" d="M256.465 186.328C256.465 186.328 242.341 188.951 239.704 192.511Z" fill="black"/>
<path d="M272.699 239.965H272.077C269.844 239.868 262.278 239.576 260.82 239.965C259.106 240.451 236.402 239.965 236.402 239.965L240.84 238.833C240.84 238.833 239.193 231.751 240.239 231.163C240.239 231.163 234.299 226.364 238.778 223.124C243.256 219.884 248.082 221.249 248.082 221.249L259.324 216.576L261.482 215.677C261.482 215.677 274.152 216.488 277.581 227.175C281.01 237.862 272.699 239.965 272.699 239.965Z" fill="#E7C7CA"/>
<path opacity="0.1" d="M272.699 239.965H272.077C275.764 236.234 284.103 224.877 259.324 216.6L261.482 215.701C261.482 215.701 274.152 216.513 277.581 227.199C281.01 237.886 272.699 239.965 272.699 239.965Z" fill="black"/>
<path d="M249.405 227.374C249.788 227.374 250.098 226.994 250.098 226.524C250.098 226.055 249.788 225.674 249.405 225.674C249.022 225.674 248.712 226.055 248.712 226.524C248.712 226.994 249.022 227.374 249.405 227.374Z" fill="#4B4B5B"/>
<path d="M245.378 228.778C245.761 228.778 246.071 228.397 246.071 227.928C246.071 227.458 245.761 227.078 245.378 227.078C244.995 227.078 244.685 227.458 244.685 227.928C244.685 228.397 244.995 228.778 245.378 228.778Z" fill="#4B4B5B"/>
<g opacity="0.1">
<path opacity="0.1" d="M225.759 48.2913C225.912 42.9484 225.137 37.6265 223.486 32.679C218.338 33.6214 212.7 28.7492 208.012 31.6638C204.543 33.8206 203.454 39.227 203.26 43.9923C203.213 45.2505 203.205 46.5086 203.225 47.7667C203.225 47.3198 203.225 46.868 203.26 46.4211C203.442 41.6558 204.531 36.2493 208.012 34.0926C212.7 31.178 218.33 36.0356 223.486 35.1078C224.884 39.2985 225.654 43.7647 225.759 48.2913V48.2913Z" fill="black"/>
<path opacity="0.1" d="M185.87 47.4004C185.938 46.3419 185.92 45.2779 185.818 44.2235C185.399 39.9489 183.494 35.8636 183.15 31.6958C182.706 36.7234 185.315 41.5519 185.818 46.6523C185.87 46.9146 185.87 47.1478 185.87 47.4004Z" fill="black"/>
<path opacity="0.1" d="M206.733 90.9924C206.487 94.5968 205.794 98.4488 203.565 100.839C201.336 103.229 197.23 103.098 195.991 99.8235C195.595 98.852 195.535 97.7202 195.151 96.7487C194.272 94.5239 192.11 93.6592 190.221 92.7897C184.856 90.3269 179.681 85.5033 178.529 78.6007C178.426 77.9754 178.356 77.3426 178.319 76.7062C178.222 78.1522 178.292 79.6079 178.529 81.0295C179.681 87.9127 184.864 92.7557 190.221 95.2185C192.11 96.088 194.272 96.9527 195.151 99.1775C195.547 100.149 195.614 101.271 195.991 102.252C197.238 105.526 201.352 105.653 203.565 103.268C205.779 100.882 206.468 97.0256 206.733 93.4212C206.853 91.5241 206.894 89.6207 206.856 87.7184C206.856 88.8211 206.804 89.9092 206.733 90.9924Z" fill="black"/>
<path opacity="0.1" d="M237.316 55.4106C237.316 56.1149 237.316 56.8144 237.316 57.5139C237.538 48.4788 240.239 39.3951 239.973 30.5494C239.767 38.7296 237.467 47.0944 237.316 55.4106Z" fill="black"/>
<path opacity="0.1" d="M228.819 91.9591C228.917 91.3827 228.947 90.7924 228.91 90.2055C228.751 88.9483 228.392 87.7419 227.853 86.6546C225.564 81.3112 222.955 75.8416 222.646 69.9105C222.646 70.1631 222.619 70.3962 222.615 70.6682C222.456 77.2454 225.351 83.264 227.853 89.0834C228.278 89.9847 228.603 90.9519 228.819 91.9591V91.9591Z" fill="black"/>
<path opacity="0.1" d="M239.593 84.9302C239.298 90.8152 237.933 96.5446 235.598 101.699C233.507 106.367 229.813 111.015 225.533 110.117C225.149 110.076 224.789 109.876 224.511 109.548C224.431 109.437 224.368 109.309 224.325 109.17C224.278 109.548 224.238 109.932 224.214 110.321C224.132 110.899 224.239 111.494 224.511 111.977C224.789 112.304 225.149 112.505 225.533 112.546C229.813 113.444 233.507 108.796 235.598 104.127C237.933 98.9734 239.298 93.244 239.593 87.359C239.641 86.2223 239.645 85.0905 239.617 83.9586C239.609 84.2841 239.609 84.6047 239.593 84.9302Z" fill="black"/>
</g>
<path opacity="0.1" d="M176.284 98.0408L183.292 90.2686C183.292 90.2686 210.467 88.0827 211.591 99.4155C211.591 99.4155 221.225 85.9794 241.486 88.9717L250.058 97.3462L226.364 110.102L203.339 119.9L186.381 110.588L176.284 98.0408Z" fill="black"/>
<path d="M176.284 98.5266L183.292 90.7544C183.292 90.7544 210.467 88.5685 211.591 99.9013C211.591 99.9013 221.225 86.4652 241.486 89.4574L250.058 97.8319L226.364 110.588L203.339 120.386L186.381 111.074L176.284 98.5266Z" fill="#D5D6DB"/>
<path opacity="0.1" d="M173.183 99.4981L176.284 144.999L209.148 147.025L207.723 101.718L207.695 100.955L173.183 99.4981Z" fill="black"/>
<path d="M173.183 98.5266L176.284 144.028L209.148 146.053L207.723 100.746L207.695 99.9838L173.183 98.5266Z" fill="#6C63FF"/>
<path opacity="0.1" d="M251.563 98.5266L217.661 104.764V150.469L250.791 144.596L251.563 98.5266Z" fill="black"/>
<path d="M251.563 97.555L217.661 103.792V149.497L250.791 143.624L251.563 97.555Z" fill="#6C63FF"/>
<path opacity="0.3" d="M243.569 108.708L225.256 111.205L225.656 118.86L243.557 116.461L243.569 108.708Z" fill="white"/>
<path d="M178.065 168.393L179.93 174.548C179.93 174.548 182.702 177.462 185.735 176.005C188.768 174.548 191.413 173.824 192.732 172.406C194.05 170.987 195.899 163.861 195.899 163.861C195.899 163.861 197.748 156.089 199.594 154.146C201.439 152.203 206.325 125.433 199.594 128.051C192.862 130.669 187.715 154.957 187.715 154.957C187.715 154.957 186.527 156.735 184.813 156.9C183.098 157.065 179.665 156.575 179.004 158.358C178.343 160.14 176.086 164.833 178.065 168.393Z" fill="#BE6F72"/>
<path opacity="0.1" d="M217.661 104.759C215.925 105.239 214.122 105.214 212.396 104.686C210.669 104.158 209.068 103.141 207.719 101.718L209.148 147.02C209.148 147.02 212.514 151.489 217.661 150.469V104.759Z" fill="black"/>
<path d="M217.661 103.787C215.925 104.267 214.122 104.242 212.396 103.714C210.669 103.186 209.068 102.17 207.719 100.746L209.148 146.048C209.148 146.048 212.514 150.517 217.661 149.497V103.787Z" fill="#6C63FF"/>
<path opacity="0.1" d="M217.661 103.787C215.925 104.267 214.122 104.242 212.396 103.714C210.669 103.186 209.068 102.17 207.719 100.746L209.148 146.048C209.148 146.048 212.514 150.517 217.661 149.497V103.787Z" fill="black"/>
<path opacity="0.1" d="M218.453 98.682C218.453 98.682 232.244 93.5086 235.839 94.2373Z" fill="black"/>
<path opacity="0.1" d="M203.027 96.4232C203.027 96.4232 189.659 92.5371 187.426 93.6398Z" fill="black"/>
<path opacity="0.1" d="M227.148 99.328C227.148 99.328 236.37 95.1797 239.704 97.1519Z" fill="black"/>
<path opacity="0.1" d="M222.504 203.392C223.933 202.076 225.454 200.917 227.049 199.929C229.425 198.525 233.781 194.882 233.781 194.882" fill="black"/>
<path opacity="0.1" d="M187.426 153.821C187.426 153.821 181.641 159.625 179.903 160.135C178.164 160.645 177.091 165.173 177.091 165.173" fill="black"/>
<path d="M248.162 167.529L246.316 173.698C246.316 173.698 243.545 176.612 240.508 175.155C237.471 173.698 234.834 172.974 233.511 171.556C232.189 170.137 230.344 163.011 230.344 163.011C230.344 163.011 228.498 155.239 226.649 153.296C224.8 151.353 219.918 124.583 226.649 127.201C233.381 129.819 238.528 154.107 238.528 154.107C238.528 154.107 239.716 155.885 241.43 156.05C243.145 156.215 246.578 155.725 247.239 157.507C247.9 159.29 250.141 163.983 248.162 167.529Z" fill="#BE6F72"/>
<path opacity="0.1" d="M244.927 156.181C244.927 156.181 248.708 159.164 248.692 162.729Z" fill="black"/>
<path d="M212.842 69.7259C222.611 69.7259 230.53 60.011 230.53 48.027C230.53 36.0431 222.611 26.3282 212.842 26.3282C203.074 26.3282 195.155 36.0431 195.155 48.027C195.155 60.011 203.074 69.7259 212.842 69.7259Z" fill="#BE6F72"/>
<path d="M201.736 42.2027C203.882 41.7898 205.763 40.2597 207.814 39.3805C212.403 37.4034 217.479 38.7587 222.124 40.5414C223.905 41.2264 225.715 41.9987 227.584 41.9987C229.453 41.9987 231.436 41.0612 232.391 39.0842C233.27 37.2674 233.099 34.9066 232.359 32.9976C231.619 31.0886 230.379 29.5536 229.128 28.106C225.01 23.3359 219.902 18.8766 214.252 19.3623C211.979 19.5615 209.805 20.5573 207.715 21.66C205.082 23.0517 202.52 24.6348 200.041 26.401C198.137 27.7563 194.609 29.5681 193.512 32.0455C191.017 37.6269 197.855 42.9508 201.736 42.2027Z" fill="#3E373A"/>
<path opacity="0.1" d="M232.391 37.044C231.436 39.021 229.453 39.9585 227.584 39.9585C225.715 39.9585 223.905 39.2153 222.12 38.5304C217.475 36.7477 212.403 35.3875 207.81 37.3694C205.763 38.2487 203.878 39.7982 201.732 40.1869C198.604 40.7892 193.567 37.4472 193.021 33.1968C192.407 38.1078 198.247 42.3145 201.732 41.6441C203.878 41.2312 205.763 39.7011 207.81 38.8267C212.403 36.8448 217.475 38.205 222.12 39.9877C223.905 40.6726 225.711 41.445 227.584 41.4158C229.457 41.3867 231.436 40.4832 232.391 38.5013C232.885 37.4231 233.08 36.1765 232.945 34.9504C232.883 35.6885 232.694 36.4022 232.391 37.044Z" fill="black"/>
<path d="M375.929 300.301C375.929 300.301 378.277 304.066 374.844 309.754C371.411 315.442 368.584 320.242 369.724 323.788C369.724 323.788 374.903 313.227 379.116 313.077C383.329 312.926 380.558 306.65 375.929 300.301Z" fill="#6C63FF"/>
<path opacity="0.1" d="M375.929 300.301C376.133 300.665 376.295 301.062 376.408 301.482C380.518 307.408 382.712 312.941 378.756 313.077C375.074 313.208 370.659 321.286 369.601 323.321C369.635 323.486 369.676 323.648 369.724 323.807C369.724 323.807 374.903 313.247 379.116 313.096C383.329 312.946 380.558 306.65 375.929 300.301Z" fill="black"/>
<path d="M380.284 305.101C380.284 306.427 380.162 307.5 380.015 307.5C379.869 307.5 379.742 306.427 379.742 305.101C379.742 303.774 379.892 304.401 380.043 304.401C380.193 304.401 380.284 303.774 380.284 305.101Z" fill="#FFD037"/>
<path d="M381.785 306.684C380.839 307.316 380.011 307.699 379.94 307.539C379.869 307.379 380.577 306.733 381.524 306.082C382.47 305.431 382.098 305.907 382.169 306.082C382.24 306.257 382.735 306.048 381.785 306.684Z" fill="#FFD037"/>
<path d="M363.52 300.301C363.52 300.301 361.172 304.066 364.604 309.754C368.037 315.442 370.865 320.242 369.72 323.788C369.72 323.788 364.545 313.227 360.328 313.077C356.111 312.926 358.903 306.65 363.52 300.301Z" fill="#6C63FF"/>
<path opacity="0.1" d="M363.52 300.301C363.315 300.665 363.154 301.062 363.04 301.482C358.93 307.408 356.737 312.941 360.692 313.077C364.371 313.208 368.79 321.286 369.847 323.321C369.814 323.487 369.771 323.649 369.72 323.807C369.72 323.807 364.545 313.247 360.328 313.096C356.111 312.946 358.903 306.65 363.52 300.301Z" fill="black"/>
<path d="M359.156 305.101C359.156 306.427 359.275 307.5 359.425 307.5C359.576 307.5 359.699 306.427 359.699 305.101C359.699 303.774 359.544 304.401 359.398 304.401C359.251 304.401 359.156 303.774 359.156 305.101Z" fill="#FFD037"/>
<path d="M357.659 306.684C358.606 307.316 359.433 307.699 359.505 307.539C359.576 307.379 358.867 306.733 357.921 306.082C356.974 305.431 357.347 305.907 357.275 306.082C357.204 306.257 356.709 306.048 357.659 306.684Z" fill="#FFD037"/>
<path opacity="0.1" d="M369.724 352.603C383.282 352.603 394.274 350.535 394.274 347.983C394.274 345.432 383.282 343.364 369.724 343.364C356.166 343.364 345.175 345.432 345.175 347.983C345.175 350.535 356.166 352.603 369.724 352.603Z" fill="#6C63FF"/>
<path d="M382.359 318.711L382.24 319.887L382.074 321.548L382.007 322.243L381.841 323.904L381.769 324.599L381.607 326.255L379.726 345.151C379.56 346.837 377.315 348.153 374.602 348.153H364.842C362.13 348.153 359.889 346.837 359.718 345.151L357.838 326.255L357.671 324.599L357.604 323.904L357.438 322.243L357.366 321.548L357.204 319.887L357.085 318.711C356.994 317.74 358.206 316.953 359.742 316.953H379.706C381.239 316.953 382.454 317.755 382.359 318.711Z" fill="#65617D"/>
<path d="M382.24 319.887L382.078 321.548H357.37L357.204 319.887H382.24Z" fill="#9D9CB5"/>
<path d="M382.007 322.243L381.844 323.904H357.604L357.438 322.243H382.007Z" fill="#9D9CB5"/>
<path d="M381.773 324.599L381.607 326.26H357.838L357.675 324.599H381.773Z" fill="#9D9CB5"/>
</g>
<defs>
<linearGradient id="paint0_linear" x1="216.446" y1="243.813" x2="216.446" y2="0.000396686" gradientUnits="userSpaceOnUse">
<stop stop-color="#808080" stop-opacity="0.25"/>
<stop offset="0.54" stop-color="#808080" stop-opacity="0.12"/>
<stop offset="1" stop-color="#808080" stop-opacity="0.1"/>
</linearGradient>
<clipPath id="clip0">
<rect width="405" height="395" fill="white"/>
</clipPath>
</defs>
</svg>
