<svg width="26" height="21" viewBox="0 0 26 21" fill="none" xmlns="http://www.w3.org/2000/svg">
<path d="M26 2.74844C25.0331 3.15625 24.0029 3.42656 22.9287 3.55781C24.0337 2.92344 24.8771 1.92656 25.2736 0.725C24.2434 1.31562 23.1059 1.73281 21.8936 1.96563C20.9154 0.964063 19.5211 0.34375 18.0001 0.34375C15.0491 0.34375 12.6734 2.64688 12.6734 5.47031C12.6734 5.87656 12.7091 6.26719 12.7969 6.63906C8.3655 6.43125 4.44438 4.38906 1.81025 1.27813C1.35037 2.04531 1.08063 2.92344 1.08063 3.86875C1.08063 5.64375 2.03125 7.21719 3.44825 8.12812C2.59187 8.1125 1.75175 7.87344 1.04 7.49688C1.04 7.5125 1.04 7.53281 1.04 7.55312C1.04 10.0437 2.88762 12.1125 5.3105 12.5891C4.87663 12.7031 4.40375 12.7578 3.913 12.7578C3.57175 12.7578 3.22725 12.7391 2.90387 12.6703C3.5945 14.7 5.55425 16.1922 7.8845 16.2406C6.071 17.6047 3.76838 18.4266 1.27562 18.4266C0.8385 18.4266 0.41925 18.4078 0 18.3563C2.36112 19.8203 5.15938 20.6562 8.177 20.6562C17.9855 20.6562 23.348 12.8438 23.348 6.07187C23.348 5.84531 23.3399 5.62656 23.3285 5.40938C24.3864 4.6875 25.2752 3.78594 26 2.74844Z" fill="white"/>
</svg>
